<?xml version="1.0" encoding="UTF-8"?>
<svg id="TB_x5F_favicon" xmlns="http://www.w3.org/2000/svg" version="1.1" viewBox="0 0 188.69 185.81">
  <!-- Generator: Adobe Illustrator 29.0.1, SVG Export Plug-In . SVG Version: 2.1.0 Build 192)  -->
  <defs>
    <style>
      .st0 {
        fill: #fff;
      }
    </style>
  </defs>
  <polygon class="st0" points="188.69 135.99 168.76 135.99 168.76 145.95 149.12 145.95 149.12 155.92 129.2 155.92 129.2 165.88 109.29 165.88 109.29 175.85 99.33 175.85 99.33 185.79 89.37 185.79 89.37 175.85 79.4 175.85 79.4 165.88 59.49 165.88 59.49 155.92 39.56 155.92 39.56 145.95 19.93 145.95 19.93 135.99 0 135.99 0 0 19.93 0 19.93 9.97 39.85 9.97 39.85 19.93 59.49 19.93 59.49 29.89 79.42 29.89 79.42 39.86 89.36 39.86 89.36 49.82 79.4 49.82 79.4 39.86 59.49 39.86 59.49 29.89 39.56 29.89 39.56 19.93 19.93 19.93 19.93 9.97 9.96 9.97 9.96 126.03 19.93 126.03 19.93 135.99 39.85 135.99 39.85 145.95 59.49 145.95 59.49 155.92 79.42 155.92 79.42 165.88 89.37 165.88 89.37 49.81 99.33 49.81 99.33 39.86 109.27 39.86 109.27 29.89 129.2 29.89 129.2 19.93 148.83 19.93 148.83 9.97 168.76 9.97 168.76 0 188.69 0 188.69 135.99"/>
  <polygon points="188.69 0 188.69 135.99 168.76 135.99 168.76 145.95 149.12 145.95 149.12 155.92 129.2 155.92 129.2 165.88 109.29 165.88 109.29 175.85 99.33 175.85 99.33 185.79 89.37 185.79 89.37 175.85 79.4 175.85 79.4 165.88 59.49 165.88 59.49 155.92 79.42 155.92 79.42 165.88 89.37 165.88 89.37 49.81 99.33 49.81 99.33 39.86 109.27 39.86 109.27 29.89 129.2 29.89 129.2 19.93 148.83 19.93 148.83 9.97 168.76 9.97 168.76 0 188.69 0"/>
  <polygon points="59.49 145.95 59.49 155.92 39.56 155.92 39.56 145.95 19.93 145.95 19.93 135.99 39.85 135.99 39.85 145.95 59.49 145.95"/>
  <polygon points="89.36 39.86 89.36 49.82 79.4 49.82 79.4 39.86 59.49 39.86 59.49 29.89 79.42 29.89 79.42 39.86 89.36 39.86"/>
  <polygon points="59.49 19.93 59.49 29.89 39.56 29.89 39.56 19.93 19.93 19.93 19.93 9.97 39.85 9.97 39.85 19.93 59.49 19.93"/>
  <polygon points="9.96 9.97 9.96 126.03 19.93 126.03 19.93 135.99 0 135.99 0 0 19.93 0 19.93 9.97 9.96 9.97"/>
  <polygon class="st0" points="9.96 9.97 9.96 126.03 19.93 126.03 19.93 135.99 0 135.99 0 0 19.93 0 19.93 9.97 9.96 9.97"/>
  <polygon class="st0" points="59.49 19.93 59.49 29.89 39.56 29.89 39.56 19.93 19.93 19.93 19.93 9.97 39.85 9.97 39.85 19.93 59.49 19.93"/>
  <polygon class="st0" points="59.49 145.95 59.49 155.92 39.56 155.92 39.56 145.95 19.93 145.95 19.93 135.99 39.85 135.99 39.85 145.95 59.49 145.95"/>
  <polygon class="st0" points="89.36 39.86 89.36 49.82 79.4 49.82 79.4 39.86 59.49 39.86 59.49 29.89 79.42 29.89 79.42 39.86 89.36 39.86"/>
  <polygon class="st0" points="178.72 9.97 178.72 126.03 168.76 126.03 168.76 135.99 148.83 135.99 148.83 145.95 129.2 145.95 129.2 155.92 109.27 155.92 109.27 165.88 99.33 165.88 99.33 49.82 109.29 49.82 109.29 39.86 129.2 39.86 129.2 29.89 149.12 29.89 149.12 19.93 168.76 19.93 168.76 9.97 178.72 9.97"/>
  <rect class="st0" x="59.49" y="155.92" width="19.93" height="9.96"/>
  <polygon class="st0" points="89.72 49.82 89.72 165.88 79.42 165.88 79.42 155.92 59.49 155.92 59.49 145.95 39.85 145.95 39.85 135.99 19.93 135.99 19.93 126.03 9.96 126.03 9.96 9.97 19.97 9.97 19.97 19.93 39.7 19.93 39.7 29.89 59.71 29.89 59.71 39.86 79.71 39.86 79.71 49.82 89.72 49.82"/>
  <polygon points="99.33 49.82 99.33 165.88 109.27 165.88 109.27 155.92 129.2 155.92 129.2 165.88 109.29 165.88 109.29 175.85 99.33 175.85 99.33 185.79 89.37 185.79 89.37 175.85 79.4 175.85 79.4 165.88 59.49 165.88 59.49 155.92 79.42 155.92 79.42 165.88 89.37 165.88 89.37 49.81 99.33 49.81 99.33 39.86 109.27 39.86 109.27 29.89 129.2 29.89 129.2 39.86 109.29 39.86 109.29 49.82 99.33 49.82"/>
  <polygon class="st0" points="168.76 9.97 168.76 19.93 149.12 19.93 149.12 29.89 129.2 29.89 129.2 19.93 148.83 19.93 148.83 9.97 168.76 9.97"/>
  <polygon class="st0" points="168.76 135.99 168.76 145.95 149.12 145.95 149.12 155.92 129.2 155.92 129.2 145.95 148.83 145.95 148.83 135.99 168.76 135.99"/>
  <polygon class="st0" points="188.69 0 188.69 135.99 168.76 135.99 168.76 126.03 178.72 126.03 178.72 9.97 168.76 9.97 168.76 0 188.69 0"/>
  <path d="M43.23,63.79l-22.22-14.21-.07-7.62,51.85,33.15.07,7.62-22.22-14.21.5,57.14-7.41-4.74-.5-57.14Z"/>
  <path d="M115.56,71.07l41.91-26.44v7.62l-34.29,21.63v19.05l34.29-21.63v7.62l-34.29,21.63v22.86l34.29-21.63v7.62l-41.91,26.44v-64.77ZM157.47,52.25l7.62-4.81v19.05l-7.62,4.81v-19.05ZM157.47,78.91l7.62-4.81v22.86l-7.62,4.81v-22.86Z"/>
  <g>
    <polygon points="168.76 9.97 168.76 19.93 149.12 19.93 149.12 29.89 129.2 29.89 129.2 19.93 148.83 19.93 148.83 9.97 168.76 9.97"/>
    <polygon points="168.76 135.99 168.76 145.95 149.12 145.95 149.12 155.92 129.2 155.92 129.2 145.95 148.83 145.95 148.83 135.99 168.76 135.99"/>
    <polygon points="188.69 0 188.69 135.99 168.76 135.99 168.76 126.03 178.72 126.03 178.72 9.97 168.76 9.97 168.76 0 188.69 0"/>
    <polygon points="89.36 39.86 89.36 49.82 79.4 49.82 79.4 39.86 59.49 39.86 59.49 29.89 79.42 29.89 79.42 39.86 89.36 39.86"/>
    <polygon points="59.49 19.93 59.49 29.89 39.56 29.89 39.56 19.93 19.93 19.93 19.93 9.97 39.85 9.97 39.85 19.93 59.49 19.93"/>
    <polygon points="9.96 9.97 9.96 126.03 19.93 126.03 19.93 135.99 0 135.99 0 0 19.93 0 19.93 9.97 9.96 9.97"/>
    <polygon points="99.33 49.82 99.33 165.88 109.27 165.88 109.27 155.92 129.2 155.92 129.2 165.88 109.29 165.88 109.29 175.85 99.33 175.85 99.33 185.79 89.37 185.79 89.37 175.85 79.4 175.85 79.4 165.88 89.37 165.88 89.37 49.81 99.33 49.81 99.33 39.86 109.27 39.86 109.27 29.89 129.2 29.89 129.2 39.86 109.29 39.86 109.29 49.82 99.33 49.82"/>
    <polygon points="59.49 145.95 59.49 155.92 39.56 155.92 39.56 145.95 19.93 145.95 19.93 135.99 39.85 135.99 39.85 145.95 59.49 145.95"/>
  </g>
</svg>