<?xml version="1.0" encoding="UTF-8"?>
<svg xmlns="http://www.w3.org/2000/svg" version="1.1" viewBox="0 0 1920 3757.7">
  <!-- Generator: Adobe Illustrator 29.1.0, SVG Export Plug-In . SVG Version: 2.1.0 Build 142)  -->
  <defs>
    <style>
      .st0 {
        display: none;
      }

      .st0, .st1 {
        fill: #ffd400;
      }

      .st0, .st2 {
        opacity: .3;
      }

      .st3, .st4, .st5, .st6 {
        stroke-width: 5px;
      }

      .st3, .st4, .st6 {
        stroke-miterlimit: 10;
      }

      .st3, .st7 {
        fill: #fff;
      }

      .st3, .st5, .st6 {
        stroke: #000;
      }

      .st4 {
        stroke: #85a5ff;
      }

      .st4, .st8, .st2 {
        fill: #85a5ff;
      }

      .st5 {
        stroke-linejoin: round;
      }

      .st5, .st6 {
        fill: none;
      }

      .st9 {
        font-size: 66.6px;
      }

      .st9, .st10, .st11 {
        font-family: CoFoSansPixel-Regular, 'CoFo Sans Pixel';
      }

      .st10 {
        font-size: 62.4px;
      }

      .st11 {
        font-size: 143.5px;
      }
    </style>
  </defs>
  <g id="bg">
    <rect class="st0" x="-2334.1" y="-22.4" width="1947.7" height="4068.1"/>
    <rect class="st2" x="-13.8" y="-22.4" width="1947.7" height="3875.5"/>
  </g>
  <g id="design">
    <g>
      <rect class="st8" x="196.9" y="2167.9" width="502.6" height="225.8"/>
      <g>
        <rect class="st8" x="196.9" y="2151.6" width="502.6" height="18.1"/>
        <rect class="st8" x="196.9" y="2393.2" width="502.6" height="18.1"/>
        <rect class="st8" x="699.6" y="2169.7" width="18.1" height="224"/>
        <rect class="st8" x="178.8" y="2169.7" width="18.1" height="224"/>
      </g>
    </g>
    <g>
      <rect class="st8" x="196.9" y="3079.3" width="552.7" height="225.8"/>
      <g>
        <rect class="st8" x="196.9" y="3062.9" width="552.7" height="18.1"/>
        <rect class="st8" x="196.9" y="3304.5" width="552.7" height="18.1"/>
        <rect class="st8" x="749.6" y="3081" width="18.1" height="224"/>
        <rect class="st8" x="178.8" y="3081" width="18.1" height="224"/>
      </g>
    </g>
    <g>
      <rect class="st8" x="1040.2" y="1525.2" width="562.7" height="225.8"/>
      <g>
        <rect class="st8" x="1040.2" y="1508.8" width="562.7" height="18.1"/>
        <rect class="st8" x="1040.2" y="1750.4" width="562.7" height="18.1"/>
        <rect class="st8" x="1602.9" y="1526.9" width="18.1" height="224"/>
        <rect class="st8" x="1022.1" y="1526.9" width="18.1" height="224"/>
      </g>
    </g>
    <g>
      <rect class="st8" x="1040.2" y="2718.4" width="637.2" height="225.8"/>
      <g>
        <rect class="st8" x="1040.2" y="2702" width="637.2" height="18.1"/>
        <rect class="st8" x="1040.2" y="2943.7" width="637.2" height="18.1"/>
        <rect class="st8" x="1677.4" y="2720.2" width="18.1" height="224"/>
        <rect class="st8" x="1022.1" y="2720.2" width="18.1" height="224"/>
      </g>
    </g>
    <g>
      <rect class="st8" x="196.9" y="954.1" width="582.7" height="225.8"/>
      <g>
        <rect class="st8" x="196.9" y="937.8" width="582.7" height="18.1"/>
        <rect class="st8" x="196.9" y="1179.4" width="582.7" height="18.1"/>
        <rect class="st8" x="779.6" y="955.9" width="18.1" height="224"/>
        <rect class="st8" x="178.8" y="955.9" width="18.1" height="224"/>
      </g>
    </g>
    <text class="st10" transform="translate(177.6 214.8)"><tspan x="0" y="0">TEACHBOOKS</tspan><tspan x="0" y="74.8">_process overview</tspan></text>
    <rect class="st7" x="196.9" y="378.6" width="513.6" height="225.8"/>
    <text class="st11" transform="translate(230.1 543.5)"><tspan x="0" y="0">START</tspan></text>
    <g>
      <rect x="196.9" y="362.2" width="513.6" height="18.1"/>
      <rect x="196.9" y="603.9" width="513.6" height="18.1"/>
      <rect x="710.6" y="380.4" width="18.1" height="224"/>
      <rect x="178.8" y="380.4" width="18.1" height="224"/>
    </g>
    <g>
      <polygon class="st7" points="779.3 691.3 779.3 673.9 761.9 673.9 761.9 656.4 744.5 656.4 744.5 639 726.7 639 726.7 621.7 709.7 621.7 709.7 604.4 692.3 604.4 692.3 586.9 657.5 586.9 657.5 779.1 681.4 779.1 698.8 760.8 709.7 760.8 725.2 760.8 733.5 760.8 733.5 796.2 750.7 796.2 750.7 829.8 785.2 829.8 785.2 795.3 768 795.3 768 760.8 768.1 743.4 779 743.4 779.3 743.4 796.4 743.4 796.4 691.3 779.3 691.3"/>
      <g>
        <rect x="640" y="552.1" width="17.4" height="244.4"/>
        <rect x="750.7" y="726" width="63.1" height="17.4"/>
        <rect x="716.3" y="760.8" width="17.2" height="35.3"/>
        <rect x="733.5" y="796.2" width="17.2" height="33.6"/>
        <rect x="768" y="760.8" width="17.2" height="34.5"/>
        <rect x="785.2" y="795.3" width="17.2" height="34.5"/>
        <rect x="750.7" y="829.8" width="34.5" height="17.2"/>
        <rect x="640" y="779.1" width="41.4" height="17.4"/>
        <rect x="681.4" y="760.8" width="17.4" height="18.3"/>
        <rect x="698.8" y="744.3" width="17.4" height="16.5"/>
        <rect x="750.7" y="743.4" width="17.4" height="17.4"/>
        <rect x="674.9" y="586.9" width="17.4" height="17.4"/>
        <rect x="657.5" y="569.5" width="17.4" height="17.4"/>
        <rect x="692.3" y="604.3" width="17.4" height="17.4"/>
        <rect x="709.7" y="621.7" width="17.4" height="17.4"/>
        <rect x="727.1" y="639" width="17.4" height="17.4"/>
        <rect x="744.5" y="656.4" width="17.4" height="17.4"/>
        <rect x="761.9" y="673.9" width="17.4" height="17.4"/>
        <rect x="779" y="691.3" width="17.4" height="17.4"/>
        <rect x="796.4" y="708.7" width="17.4" height="17.4"/>
      </g>
    </g>
    <g>
      <rect class="st8" x="1040.2" y="378.6" width="513.6" height="225.8"/>
      <g>
        <rect class="st8" x="1040.2" y="362.2" width="513.6" height="18.1"/>
        <rect class="st8" x="1040.2" y="603.9" width="513.6" height="18.1"/>
        <rect class="st8" x="1553.9" y="380.4" width="18.1" height="224"/>
        <rect class="st8" x="1022.1" y="380.4" width="18.1" height="224"/>
      </g>
    </g>
    <g>
      <text class="st9" transform="translate(1246.1 501.1)"><tspan x="0" y="0">get </tspan><tspan x="0" y="66.6">an idea</tspan></text>
      <path class="st7" d="M1125.1,422.6v-19.3h38.7v145.1h38.7v19.3h-106.4v-19.3h48.4v-125.7h-19.3ZM1125.1,441.9h-29v-19.3h29v19.3Z"/>
    </g>
    <g>
      <rect x="1494.9" y="798.5" width="8.8" height="8.8"/>
      <rect x="1547.9" y="798.5" width="8.8" height="8.8"/>
      <rect x="1539.1" y="816.2" width="8.8" height="8.8"/>
      <rect x="1503.7" y="816.2" width="8.8" height="8.8"/>
      <rect x="1494.9" y="789.7" width="61.8" height="8.8"/>
      <rect x="1494.9" y="807.4" width="61.8" height="8.8"/>
      <polygon class="st8" points="1574.4 701.4 1574.4 692.5 1565.6 692.5 1565.6 683.7 1556.7 683.7 1556.7 674.9 1547.9 674.9 1547.9 666 1503.7 666 1503.7 674.9 1494.9 674.9 1494.9 683.7 1486.1 683.7 1486.1 692.5 1477.2 692.5 1477.3 701.4 1468.4 701.4 1468.4 754.4 1477.2 754.4 1477.2 754.3 1477.2 754.4 1477.2 754.4 1477.2 763.2 1486.1 763.2 1486.1 772 1494.9 772 1494.9 772 1494.9 772 1494.9 772 1494.9 789.7 1556.7 789.7 1556.7 780.9 1556.7 780.9 1556.7 772 1565.6 772 1565.6 763.2 1565.5 763.2 1574.4 763.2 1574.4 754.4 1583.3 754.4 1583.3 701.4 1574.4 701.4"/>
      <rect x="1521.4" y="825" width="8.8" height="8.8"/>
      <rect x="1530.2" y="825" width="8.8" height="8.8"/>
      <rect x="1512.6" y="825" width="8.8" height="8.8"/>
      <rect x="1512.6" y="754.4" width="8.8" height="8.8"/>
      <rect x="1530.2" y="754.4" width="8.8" height="8.8"/>
      <rect x="1512.6" y="763.2" width="8.8" height="8.8"/>
      <rect x="1512.6" y="772" width="8.8" height="8.8"/>
      <rect x="1512.6" y="780.9" width="8.8" height="8.8"/>
      <rect x="1530.2" y="763.2" width="8.8" height="8.8"/>
      <rect x="1530.2" y="772" width="8.8" height="8.8"/>
      <rect x="1530.2" y="780.9" width="8.8" height="8.8"/>
      <rect x="1503.7" y="745.5" width="8.8" height="8.8"/>
      <rect x="1494.9" y="736.7" width="8.8" height="8.8"/>
      <rect x="1539.1" y="745.5" width="8.8" height="8.8"/>
      <rect x="1547.9" y="736.7" width="8.8" height="8.8"/>
      <rect x="1494.9" y="727.9" width="8.8" height="8.8"/>
      <rect x="1512.6" y="727.9" width="8.8" height="8.8"/>
      <rect x="1530.2" y="727.9" width="8.8" height="8.8"/>
      <rect x="1503.7" y="719" width="8.8" height="8.8"/>
      <rect x="1521.4" y="719" width="8.8" height="8.8"/>
      <rect x="1539.1" y="719" width="8.8" height="8.8"/>
      <rect x="1547.9" y="727.9" width="8.8" height="8.8"/>
    </g>
    <text class="st9" transform="translate(391 1022)"><tspan x="0" y="0">create </tspan><tspan class="st7" x="208.2" y="0">your </tspan><tspan x="0" y="66.6">version of </tspan><tspan x="0" y="133.1">the book</tspan></text>
    <path class="st7" d="M247.4,1010.1v38.7h-19.3v-38.7h19.3ZM247.4,1116.5v19.3h96.7v19.3h-116.1v-38.7h19.3ZM247.4,990.8h77.4v19.3h-77.4v-19.3ZM247.4,1097.2h19.3v19.3h-19.3v-19.3ZM266.8,1077.8h38.7v19.3h-38.7v-19.3ZM324.8,1058.5v19.3h-19.3v-19.3h19.3ZM344.1,1010.1v48.4h-19.3v-48.4h19.3Z"/>
    <polygon class="st7" points="1014.6 1197.2 1014.6 1207.7 1016.2 1207.7 1016.2 1213.1 1000.6 1213.1 1000.6 1218.4 989.9 1218.4 989.9 1223.8 979.5 1223.8 979.5 1229.1 968.8 1229.1 968.8 1234.4 958.2 1234.4 958.2 1239.7 942.2 1239.7 942.2 1234.4 931.7 1234.4 931.7 1229.1 921.2 1229.1 921.2 1223.8 910.6 1223.8 910.6 1218.4 899.9 1218.4 899.9 1213.1 889.3 1213.1 889.3 1207.8 878.7 1207.8 878.7 1202.5 868 1202.5 868 1197.2 841.5 1197.2 841.5 1092.5 846.8 1092.5 846.8 1044.7 868 1044.7 868 1050 878.7 1050 878.7 1055.3 889.2 1055.3 889.2 1060.6 899.9 1060.6 899.9 1065.9 910.6 1065.9 910.6 1071.2 921.2 1071.2 921.2 1076.6 931.7 1076.6 931.7 1087.1 931.4 1087.1 947.6 1087.1 947.6 1092.5 953.8 1092.5 953.8 1087.1 968.8 1087.1 968.8 1076.5 980.3 1076.6 980.3 1071.2 990.9 1071.2 990.9 1065.9 1001.5 1065.9 1001.5 1060.6 1012.2 1060.6 1012.2 1055.3 1022.8 1055.3 1022.8 1050 1033.4 1050 1033.4 1044.7 1054.6 1044.7 1054.6 1087.1 1054.4 1087.1 1054.6 1087.1 1054.6 1092.5 1059 1092.5 1059 1197.2 1014.6 1197.2"/>
    <g>
      <rect x="947.6" y="1097.8" width="5.3" height="152.6"/>
      <rect x="947.6" y="1092.5" width="5.3" height="5.3"/>
      <g>
        <rect x="937" y="1081.8" width="5.3" height="5.3"/>
        <rect x="931.7" y="1081.8" width="5.3" height="5.3"/>
        <rect x="926.3" y="1076.5" width="5.3" height="5.3"/>
        <rect x="921" y="1076.5" width="5.3" height="5.3"/>
        <rect x="915.9" y="1071.2" width="5.3" height="5.3"/>
        <rect x="910.6" y="1071.2" width="5.3" height="5.3"/>
        <rect x="905.2" y="1065.9" width="5.3" height="5.3"/>
        <rect x="899.9" y="1065.9" width="5.3" height="5.3"/>
        <rect x="894.6" y="1060.6" width="5.3" height="5.3"/>
        <rect x="889.3" y="1060.6" width="5.3" height="5.3"/>
        <rect x="884" y="1055.3" width="5.3" height="5.3"/>
        <rect x="878.7" y="1055.3" width="5.3" height="5.3"/>
        <rect x="873.4" y="1050" width="5.3" height="5.3"/>
        <rect x="868.1" y="1050" width="5.3" height="5.3"/>
        <rect x="862.7" y="1044.7" width="5.3" height="5.3"/>
        <rect x="857.4" y="1044.7" width="5.3" height="5.3"/>
        <rect x="852.1" y="1039.4" width="5.3" height="5.3"/>
        <rect x="846.8" y="1039.4" width="5.3" height="5.3"/>
        <rect x="937" y="1234.3" width="5.3" height="5.3"/>
        <rect x="931.7" y="1234.3" width="5.3" height="5.3"/>
        <rect x="926.3" y="1229" width="5.3" height="5.3"/>
        <rect x="921" y="1229" width="5.3" height="5.3"/>
        <rect x="915.9" y="1223.7" width="5.3" height="5.3"/>
        <rect x="910.6" y="1223.7" width="5.3" height="5.3"/>
        <rect x="905.2" y="1218.4" width="5.3" height="5.3"/>
        <rect x="899.9" y="1218.4" width="5.3" height="5.3"/>
        <rect x="894.6" y="1213.1" width="5.3" height="5.3"/>
        <rect x="889.3" y="1213.1" width="5.3" height="5.3"/>
        <rect x="884" y="1207.8" width="5.3" height="5.3"/>
        <rect x="878.7" y="1207.8" width="5.3" height="5.3"/>
        <rect x="873.4" y="1202.5" width="5.3" height="5.3"/>
        <rect x="868.1" y="1202.5" width="5.3" height="5.3"/>
        <rect x="862.7" y="1197.2" width="5.3" height="5.3"/>
        <rect x="857.4" y="1197.2" width="5.3" height="5.3"/>
        <rect x="852.1" y="1191.9" width="5.3" height="5.3"/>
        <rect x="846.8" y="1191.9" width="5.3" height="5.3"/>
        <rect x="942.3" y="1087.2" width="5.3" height="5.3"/>
        <rect x="942.3" y="1239.7" width="5.3" height="5.3"/>
        <rect x="841.5" y="1039.4" width="5.3" height="157.8"/>
      </g>
      <g>
        <rect x="958.2" y="1081.8" width="5.3" height="5.3"/>
        <rect x="963.5" y="1081.8" width="5.3" height="5.3"/>
        <rect x="968.8" y="1076.5" width="5.3" height="5.3"/>
        <rect x="974.2" y="1076.5" width="5.3" height="5.3"/>
        <rect x="979.3" y="1071.2" width="5.3" height="5.3"/>
        <rect x="984.6" y="1071.2" width="5.3" height="5.3"/>
        <rect x="989.9" y="1065.9" width="5.3" height="5.3"/>
        <rect x="995.3" y="1065.9" width="5.3" height="5.3"/>
        <rect x="1000.6" y="1060.6" width="5.3" height="5.3"/>
        <rect x="1005.9" y="1060.6" width="5.3" height="5.3"/>
        <rect x="1011.2" y="1055.3" width="5.3" height="5.3"/>
        <rect x="1016.5" y="1055.3" width="5.3" height="5.3"/>
        <rect x="1021.8" y="1050" width="5.3" height="5.3"/>
        <rect x="1027.1" y="1050" width="5.3" height="5.3"/>
        <rect x="1032.4" y="1044.7" width="5.3" height="5.3"/>
        <rect x="1037.8" y="1044.7" width="5.3" height="5.3"/>
        <rect x="1043.1" y="1039.4" width="5.3" height="5.3"/>
        <rect x="1048.4" y="1039.4" width="5.3" height="5.3"/>
        <rect x="958.2" y="1234.3" width="5.3" height="5.3"/>
        <rect x="963.5" y="1234.3" width="5.3" height="5.3"/>
        <rect x="968.8" y="1229" width="5.3" height="5.3"/>
        <rect x="974.2" y="1229" width="5.3" height="5.3"/>
        <rect x="979.3" y="1223.7" width="5.3" height="5.3"/>
        <rect x="984.6" y="1223.7" width="5.3" height="5.3"/>
        <rect x="989.9" y="1218.4" width="5.3" height="5.3"/>
        <rect x="995.3" y="1218.4" width="5.3" height="5.3"/>
        <rect x="1000.6" y="1213.1" width="5.3" height="5.3"/>
        <rect x="1005.9" y="1213.1" width="5.3" height="5.3"/>
        <rect x="1011.2" y="1207.8" width="5.3" height="5.3"/>
        <rect x="1016.5" y="1207.8" width="5.3" height="5.3"/>
        <rect x="1021.8" y="1202.5" width="5.3" height="5.3"/>
        <rect x="1037.8" y="1197.2" width="5.3" height="5.3"/>
        <rect x="1043.1" y="1191.9" width="5.3" height="5.3"/>
        <rect x="1048.4" y="1191.9" width="5.3" height="5.3"/>
        <rect x="952.9" y="1087.2" width="5.3" height="5.3"/>
        <rect x="952.9" y="1239.7" width="5.3" height="5.3"/>
        <rect x="1053.7" y="1154" width="5.3" height="43.3"/>
        <rect x="1053.7" y="1039.4" width="5.3" height="123.9"/>
      </g>
      <g>
        <g>
          <rect x="968.8" y="1119.8" width="5.3" height="5.3"/>
          <rect x="974.2" y="1119.8" width="5.3" height="5.3"/>
          <rect x="979.3" y="1114.4" width="5.3" height="5.3"/>
          <rect x="984.6" y="1114.4" width="5.3" height="5.3"/>
          <rect x="989.9" y="1109.1" width="5.3" height="5.3"/>
          <rect x="995.3" y="1109.1" width="5.3" height="5.3"/>
          <rect x="1000.6" y="1103.8" width="5.3" height="5.3"/>
          <rect x="1005.9" y="1103.8" width="5.3" height="5.3"/>
          <rect x="1011.2" y="1098.5" width="5.3" height="5.3"/>
          <rect x="1016.5" y="1098.5" width="5.3" height="5.3"/>
          <rect x="1021.8" y="1093.3" width="5.3" height="5.3"/>
          <rect x="1027.1" y="1093.3" width="5.3" height="5.3"/>
        </g>
        <g>
          <rect x="968.8" y="1141.1" width="5.3" height="5.3"/>
          <rect x="974.2" y="1141.1" width="5.3" height="5.3"/>
          <rect x="979.3" y="1135.8" width="5.3" height="5.3"/>
          <rect x="984.6" y="1135.8" width="5.3" height="5.3"/>
          <rect x="989.9" y="1130.5" width="5.3" height="5.3"/>
          <rect x="995.3" y="1130.5" width="5.3" height="5.3"/>
          <rect x="1000.6" y="1125.2" width="5.3" height="5.3"/>
          <rect x="1005.9" y="1125.2" width="5.3" height="5.3"/>
          <rect x="1011.2" y="1119.9" width="5.3" height="5.3"/>
          <rect x="1016.5" y="1119.9" width="5.3" height="5.3"/>
          <rect x="1021.8" y="1114.6" width="5.3" height="5.3"/>
          <rect x="1027.1" y="1114.6" width="5.3" height="5.3"/>
        </g>
        <g>
          <rect x="968.8" y="1162.5" width="5.3" height="5.3"/>
          <rect x="974.2" y="1162.5" width="5.3" height="5.3"/>
          <rect x="979.3" y="1157.1" width="5.3" height="5.3"/>
          <rect x="984.6" y="1157.1" width="5.3" height="5.3"/>
          <rect x="989.9" y="1151.8" width="5.3" height="5.3"/>
          <rect x="995.3" y="1151.8" width="5.3" height="5.3"/>
          <rect x="1000.6" y="1146.5" width="5.3" height="5.3"/>
          <rect x="1005.9" y="1146.5" width="5.3" height="5.3"/>
          <rect x="1011.2" y="1141.2" width="5.3" height="5.3"/>
          <rect x="1016.5" y="1141.2" width="5.3" height="5.3"/>
          <rect x="1021.8" y="1136" width="5.3" height="5.3"/>
          <rect x="1027.1" y="1136" width="5.3" height="5.3"/>
        </g>
        <g>
          <rect x="968.8" y="1183.8" width="5.3" height="5.3"/>
          <rect x="974.2" y="1183.8" width="5.3" height="5.3"/>
          <rect x="979.3" y="1178.5" width="5.3" height="5.3"/>
          <rect x="984.6" y="1178.5" width="5.3" height="5.3"/>
          <rect x="989.9" y="1173.2" width="5.3" height="5.3"/>
          <rect x="995.3" y="1173.2" width="5.3" height="5.3"/>
          <rect x="1000.6" y="1167.9" width="5.3" height="5.3"/>
          <rect x="1005.9" y="1167.9" width="5.3" height="5.3"/>
          <rect x="1011.2" y="1162.5" width="5.3" height="5.3"/>
          <rect x="1016.5" y="1162.5" width="5.3" height="5.3"/>
          <rect x="1021.8" y="1157.3" width="5.3" height="5.3"/>
          <rect x="1027.1" y="1157.3" width="5.3" height="5.3"/>
        </g>
      </g>
      <g>
        <g>
          <rect x="926.3" y="1119.8" width="5.3" height="5.3"/>
          <rect x="921" y="1119.8" width="5.3" height="5.3"/>
          <rect x="915.9" y="1114.5" width="5.3" height="5.3"/>
          <rect x="910.6" y="1114.5" width="5.3" height="5.3"/>
          <rect x="905.2" y="1109.2" width="5.3" height="5.3"/>
          <rect x="899.9" y="1109.2" width="5.3" height="5.3"/>
          <rect x="894.6" y="1103.9" width="5.3" height="5.3"/>
          <rect x="889.3" y="1103.9" width="5.3" height="5.3"/>
          <rect x="884" y="1098.6" width="5.3" height="5.3"/>
          <rect x="878.7" y="1098.6" width="5.3" height="5.3"/>
          <rect x="873.4" y="1093.4" width="5.3" height="5.3"/>
          <rect x="868" y="1093.4" width="5.3" height="5.3"/>
        </g>
        <g>
          <rect x="926.3" y="1141.2" width="5.3" height="5.3"/>
          <rect x="921" y="1141.2" width="5.3" height="5.3"/>
          <rect x="915.9" y="1135.9" width="5.3" height="5.3"/>
          <rect x="910.6" y="1135.9" width="5.3" height="5.3"/>
          <rect x="905.2" y="1130.6" width="5.3" height="5.3"/>
          <rect x="899.9" y="1130.6" width="5.3" height="5.3"/>
          <rect x="894.6" y="1125.3" width="5.3" height="5.3"/>
          <rect x="889.3" y="1125.3" width="5.3" height="5.3"/>
          <rect x="884" y="1119.9" width="5.3" height="5.3"/>
          <rect x="878.7" y="1119.9" width="5.3" height="5.3"/>
          <rect x="873.4" y="1114.7" width="5.3" height="5.3"/>
          <rect x="868" y="1114.7" width="5.3" height="5.3"/>
        </g>
        <g>
          <rect x="926.3" y="1162.5" width="5.3" height="5.3"/>
          <rect x="921" y="1162.5" width="5.3" height="5.3"/>
          <rect x="915.9" y="1157.2" width="5.3" height="5.3"/>
          <rect x="910.6" y="1157.2" width="5.3" height="5.3"/>
          <rect x="905.2" y="1151.9" width="5.3" height="5.3"/>
          <rect x="899.9" y="1151.9" width="5.3" height="5.3"/>
          <rect x="894.6" y="1146.6" width="5.3" height="5.3"/>
          <rect x="889.3" y="1146.6" width="5.3" height="5.3"/>
          <rect x="884" y="1141.3" width="5.3" height="5.3"/>
          <rect x="878.7" y="1141.3" width="5.3" height="5.3"/>
          <rect x="873.4" y="1136" width="5.3" height="5.3"/>
          <rect x="868" y="1136" width="5.3" height="5.3"/>
        </g>
        <g>
          <rect x="926.3" y="1183.9" width="5.3" height="5.3"/>
          <rect x="921" y="1183.9" width="5.3" height="5.3"/>
          <rect x="915.9" y="1178.6" width="5.3" height="5.3"/>
          <rect x="910.6" y="1178.6" width="5.3" height="5.3"/>
          <rect x="905.2" y="1173.3" width="5.3" height="5.3"/>
          <rect x="899.9" y="1173.3" width="5.3" height="5.3"/>
          <rect x="894.6" y="1167.9" width="5.3" height="5.3"/>
          <rect x="889.3" y="1167.9" width="5.3" height="5.3"/>
          <rect x="884" y="1162.6" width="5.3" height="5.3"/>
          <rect x="878.7" y="1162.6" width="5.3" height="5.3"/>
          <rect x="873.4" y="1157.4" width="5.3" height="5.3"/>
          <rect x="868" y="1157.4" width="5.3" height="5.3"/>
        </g>
      </g>
    </g>
    <g>
      <text class="st9" transform="translate(1259 1647.6)"><tspan x="0" y="0">edit </tspan><tspan x="0" y="66.6">the book</tspan></text>
      <path class="st7" d="M1096.1,1549.8h116.1v38.7h-19.3v-19.3h-96.7v-19.3ZM1096.1,1665.9h19.3v29h-19.3v-29ZM1192.8,1714.3h-77.4v-19.3h77.4v19.3ZM1154.1,1646.6h-19.3v-19.3h19.3v19.3ZM1173.5,1627.2h-19.3v-19.3h19.3v19.3ZM1192.8,1607.9h-19.3v-19.3h19.3v19.3ZM1192.8,1627.2v19.3h-19.3v-19.3h19.3ZM1212.2,1646.6v48.4h-19.3v-48.4h19.3Z"/>
    </g>
    <path class="st8" d="M245.9,1751.3c.2,1,.8,4.2,2,9,2.4,9.6,7.1,25.8,15.1,44.1,3.5,8.1,7.7,16.5,12.7,25.1,13.8,23.9,30.7,43.2,50.2,57.4,25.7,18.8,55.2,28.3,87.6,28.3,44.7,0,83.6-17.1,112.3-48.7,7.1-7.8,13.6-16.6,19.4-26.1.5-.8.9-1.6,1.4-2.4,20.2-34.5,25.2-68.4,25.7-72.1l-83.4-11.2c-.4,2.2-2.9,16.6-10.5,32.5-.8,1.7-1.7,3.4-2.6,5.2-.9,1.6-1.8,3.2-2.8,4.9-14.2,23.1-33.1,33.9-59.5,33.9-9.6,0-38.8,0-64-42.2-4.6-7.7-8.3-15.5-11.2-22.7-3.7-9-6.2-17.1-7.7-22.7-1.2-4.2-1.7-7-1.9-7.7l-82.7,15.4Z"/>
    <path class="st8" d="M610.4,1590.1c-27,36.2-37.6,74.9-36.6,75.6l179.4-30.5c.9.7,2.1.8,3.1.3,23.8-11.7,29-37.2,24.8-60.9-4.1-22.8-28.6-49.2-66.1-49.5-37.5-.3-77.6,28.7-104.6,64.9Z"/>
    <rect class="st7" x="250.3" y="1485.6" width="420.1" height="272.1"/>
    <rect x="260.8" y="1543.4" width="44.1" height="8.9"/>
    <rect x="278.4" y="1525.8" width="8.9" height="44.1"/>
    <rect x="250.3" y="1476.7" width="420.1" height="8.9"/>
    <rect x="367.5" y="1527.8" width="263.3" height="8.9"/>
    <rect x="367.5" y="1572.4" width="263.3" height="8.9"/>
    <rect x="367.5" y="1617.2" width="263.3" height="8.9"/>
    <rect x="367.5" y="1661.7" width="263.3" height="8.9"/>
    <rect x="367.5" y="1706.3" width="263.3" height="8.9"/>
    <rect x="250.3" y="1758.1" width="420.1" height="8.9"/>
    <rect x="670.4" y="1485.6" width="8.9" height="272.5"/>
    <rect x="241.4" y="1485.6" width="8.9" height="272.5"/>
    <rect x="319.5" y="1485.6" width="8.9" height="272.5"/>
    <g>
      <ellipse cx="302.6" cy="1835.9" rx="5.9" ry="10.9" transform="translate(-980.7 488.6) rotate(-34.2)"/>
      <ellipse cx="487.9" cy="1867.4" rx="10.9" ry="5.9" transform="translate(-1225.4 978.7) rotate(-47.9)"/>
      <circle cx="329.5" cy="1845.8" r="4.3"/>
      <circle cx="503.4" cy="1789.2" r="4.3"/>
      <path d="M247.9,1760.4c2.4,9.6,7.1,25.8,15.1,44.1l75.2-38.1c-3.7-9-6.2-17.1-7.7-22.7l-82.6,16.7Z"/>
      <g>
        <path class="st4" d="M185.6,1732.8l9.8,17.8c.1.2.2.4.4.7,11.7,20.4,37.2,30.7,58.7,25.4l76.9-19c21.5-5.3,39.3-26.3,40.1-49.8,0-.2,0-.5,0-.8l.4-20.3c.6-31-23.3-54.1-53.5-46.6l-107.1,26.4c-30.2,7.5-40.7,39.1-25.7,66.2Z"/>
        <circle cx="282.7" cy="1704.7" r="4.6"/>
        <circle cx="270.9" cy="1707.6" r="4.6"/>
        <path class="st5" d="M253,1716.8h0c3.3,5.1,7.2,7.6,10.6,6.8l32.5-8c3.4-.8,5.7-4.9,6.2-10.9h0"/>
        <path class="st7" d="M284,1688.9c3.9,2.5,8.4,4,13.1,4.5,1.2.1,2.4.2,3.6.1,1.7,0,3.4-.2,5.1-.5.5,0,1-.2,1.5-.3,16.1-4,25.9-20.2,21.9-36.3-1-4-2.7-7.6-5-10.7-.4-.6-.8-1.1-1.3-1.6-1.5-1.8-3.2-3.4-5.1-4.7-.6-.4-1.2-.8-1.8-1.2-6.6-4.2-14.9-5.7-23.1-3.7-16.1,4-25.9,20.2-21.9,36.3,1.9,7.8,6.8,14.2,13.1,18.1Z"/>
        <path class="st7" d="M204.9,1687c1.9,7.8,6.8,14.2,13.1,18.2,6.7,4.2,15,5.8,23.2,3.8,16.1-4,25.9-20.2,21.9-36.3-1.9-7.9-6.8-14.2-13.2-18.2-6.6-4.2-14.9-5.7-23.1-3.7-16.1,4-25.9,20.2-21.9,36.3Z"/>
        <path class="st6" d="M271,1670.7c1.9,7.8,6.8,14.2,13.1,18.2,6.7,4.2,15,5.8,23.2,3.8,16.1-4,25.9-20.2,21.9-36.3-1.9-7.9-6.8-14.2-13.2-18.2-6.6-4.2-14.9-5.7-23.1-3.7-16.1,4-25.9,20.2-21.9,36.3Z"/>
        <path class="st6" d="M204.9,1687c1.9,7.8,6.8,14.2,13.1,18.2,6.7,4.2,15,5.8,23.2,3.8,16.1-4,25.9-20.2,21.9-36.3-1.9-7.9-6.8-14.2-13.2-18.2-6.6-4.2-14.9-5.7-23.1-3.7-16.1,4-25.9,20.2-21.9,36.3Z"/>
        <path d="M302,1689.4c1.2,1.3,2.4,2.5,3.7,3.6.5,0,1-.2,1.5-.3,16.1-4,25.9-20.2,21.9-36.3-1-4-2.7-7.6-5-10.7-.4-.6-.8-1.1-1.3-1.6-6.4,0-12.7,2.2-17.9,6.6-11.5,9.9-12.8,27.2-2.9,38.7Z"/>
        <path d="M235.7,1705.7c1.2,1.3,2.4,2.5,3.7,3.6.5,0,1-.2,1.5-.3,16.1-4,25.9-20.2,21.9-36.3-1-4-2.7-7.6-5-10.7-.4-.6-.8-1.1-1.3-1.6-6.4,0-12.7,2.2-17.9,6.6-11.5,9.9-12.8,27.2-2.9,38.7Z"/>
        <path class="st6" d="M225.8,1775.3c9.3,3.1,19.4,3.7,28.6,1.4l76.9-19c21.5-5.3,39.3-26.3,40.1-49.8,0-.2,0-.5,0-.8l.4-20.3"/>
      </g>
    </g>
    <g>
      <g>
        <polygon class="st3" points="615.9 1663.6 633.1 1716.8 685.5 1694.1 692.2 1663.4 690.6 1584.5 627.7 1637 615.9 1663.6"/>
        <polygon points="655.9 1707.7 633.1 1716.8 624.5 1693.5 655.9 1707.7"/>
        <polyline class="st3" points="731.5 1591.7 731.5 1591.7 747 1557.4 676.9 1525.8 661.5 1560.1 661.5 1560.1"/>
        <path class="st1" d="M611.5,1663.3c32.5-4.8,57.7,6.6,75.7,34.1h0s46.2-102.5,46.2-102.5l-75.7-34.1-46.2,102.5h0Z"/>
        <line class="st3" x1="657.7" y1="1560.9" x2="733.4" y2="1595"/>
        <line class="st3" x1="639.2" y1="1660.5" x2="679.6" y2="1570.7"/>
        <line class="st3" x1="671" y1="1674.8" x2="711.4" y2="1585.1"/>
      </g>
      <g>
        <path class="st8" d="M665,1637.6c.8,2.9,3,5.2,6.7,6.9,16.1,7.4,61.2,2.6,84.6-9,1.4-.7,2-2.4,1.3-3.9-.6-1.3-2.1-1.9-3.5-1.5l-15.2-46.2c.6-1,1.1-2,1.4-3,.4-1.2,0-2.6-1.1-3.3s-.5-.3-.8-.4c-1.5-.5-3.2.3-3.7,1.8-2.7,7.9-19.9,17.8-35.1,26.5-20.1,11.5-37.6,21.5-34.8,32Z"/>
        <path class="st6" d="M741.8,1572.7c-2.4,16-26.7,24.3-41.9,33-20.1,11.5-37.6,21.5-34.8,32,.8,2.9,3,5.2,6.7,6.9,9.1,4.2,27.4,4.4,45.8,1.8"/>
      </g>
    </g>
    <circle cx="755.7" cy="1618.6" r="4.3"/>
    <text class="st9" transform="translate(410.3 2290.3)"><tspan x="0" y="0">check </tspan><tspan x="0" y="66.6">changes</tspan></text>
    <path class="st7" d="M324.8,2318.4h-96.7v-38.7h19.3v19.3h77.4v-87h-19.3v-19.3h38.7v106.4h19.3v19.3h-19.3v38.7h-19.3v-38.7ZM266.8,2260.4v19.3h-19.3v-19.3h19.3ZM286.1,2260.4h-19.3v-29h19.3v29ZM305.5,2231.4h-19.3v-19.3h19.3v19.3Z"/>
    <g>
      <text class="st9" transform="translate(1259 2840.9)"><tspan x="0" y="0">repeat edit </tspan><tspan x="0" y="66.6">and check</tspan></text>
      <path class="st7" d="M1115.4,2762.4v58h19.3v19.3h-38.7v-77.4h19.3ZM1115.4,2743h87v19.3h-87v-19.3ZM1192.8,2907.5h-96.7v-19.3h96.7v19.3ZM1134.8,2801.1h58v19.3h-58v-19.3ZM1212.2,2820.4v67.7h-19.3v-67.7h19.3Z"/>
    </g>
    <polygon class="st7" points="647 2817.1 647 2858.3 660.9 2872.2 702.4 2872.2 702.4 2865.5 653.9 2817 647 2817.1"/>
    <polygon class="st7" points="771.7 2775 771.7 2767.6 764.8 2767.6 764.8 2760.9 757.9 2760.9 757.9 2753.9 750.9 2753.9 750.9 2747.8 744 2747.8 744 2740.9 716.3 2740.9 716.3 2747.8 716.1 2747.8 716.1 2754.7 723.1 2754.7 723.1 2761.7 730 2761.7 730 2768.7 737.1 2768.7 737.1 2775.6 744 2775.6 744 2796.6 763.2 2796.6 763.2 2802.9 772.3 2802.9 772.3 2796.6 778.6 2796.6 778.6 2775 771.7 2775"/>
    <polygon class="st8" points="764.8 2802.9 764.8 2796.3 757.8 2796.3 757.8 2789.3 750.9 2789.3 750.9 2782.4 744 2782.4 744 2775.5 737 2775.5 737 2768.6 730.1 2768.6 730.1 2761.6 723.2 2761.6 723.2 2754.7 716.3 2754.7 716.3 2747.8 709.3 2747.8 709.3 2754.7 702.4 2754.7 702.4 2761.6 695.5 2761.6 695.5 2768.6 688.6 2768.6 688.6 2775.5 681.6 2775.5 681.6 2782.4 674.7 2782.4 674.7 2789.3 667.8 2789.3 667.8 2796.3 660.9 2796.3 660.9 2803.2 653.9 2803.2 653.9 2810.1 647 2810.1 647 2817 653.9 2817 653.9 2824 660.9 2824 660.9 2830.9 667.8 2830.9 667.8 2831.5 674.7 2831.5 674.7 2844.8 681.6 2844.8 681.6 2844.7 688.6 2844.7 688.6 2851.7 688.5 2851.7 688.5 2858.6 695.5 2858.6 695.5 2858.6 695.5 2858.6 695.5 2865.5 702.4 2865.5 702.4 2872.2 709.3 2872.2 709.3 2865.2 716.3 2865.2 716.3 2858.3 723.2 2858.3 723.2 2851.4 723.2 2851.4 723.2 2851.4 730.1 2851.4 730.1 2844.5 730.1 2844.5 730.1 2844.5 737.1 2844.5 737.1 2837.5 737 2837.5 737.1 2837.5 744 2837.5 744 2830.6 744 2830.6 744 2830.6 750.9 2830.6 750.9 2823.7 757.8 2823.7 757.8 2816.8 764.8 2816.8 764.8 2810 764.8 2810 764.8 2809.8 771.7 2809.8 771.7 2802.9 764.8 2802.9"/>
    <rect x="674.7" y="2837.8" width="6.9" height="6.9"/>
    <rect x="681.6" y="2844.7" width="6.9" height="6.9"/>
    <rect x="640.1" y="2817.1" width="6.9" height="6.9"/>
    <rect x="640.1" y="2824" width="6.9" height="6.9"/>
    <rect x="640.1" y="2830.9" width="6.9" height="6.9"/>
    <rect x="640.1" y="2837.6" width="6.9" height="6.9"/>
    <rect x="640.1" y="2844.5" width="6.9" height="6.9"/>
    <rect x="640.1" y="2851.4" width="6.9" height="6.9"/>
    <rect x="640.1" y="2858.3" width="6.9" height="6.9"/>
    <rect x="640.1" y="2865.2" width="6.9" height="6.9"/>
    <rect x="640.1" y="2872.2" width="6.9" height="6.9"/>
    <rect x="647" y="2865.2" width="6.9" height="6.9"/>
    <rect x="647" y="2858.3" width="6.9" height="6.9"/>
    <rect x="653.9" y="2865.2" width="6.9" height="6.9"/>
    <rect x="647" y="2872.2" width="6.9" height="6.9"/>
    <rect x="653.9" y="2872.2" width="6.9" height="6.9"/>
    <rect x="660.9" y="2872.2" width="6.9" height="6.9"/>
    <rect x="667.8" y="2872.2" width="6.9" height="6.9"/>
    <rect x="674.7" y="2872.2" width="6.9" height="6.9"/>
    <rect x="681.6" y="2872.2" width="6.9" height="6.9"/>
    <rect x="688.6" y="2872.2" width="6.9" height="6.9"/>
    <rect x="695.5" y="2872.2" width="6.9" height="6.9"/>
    <rect x="716.3" y="2740.9" width="6.9" height="6.9"/>
    <rect x="674.7" y="2824" width="6.9" height="6.9"/>
    <rect x="681.6" y="2817.1" width="6.9" height="6.9"/>
    <rect x="688.6" y="2810.1" width="6.9" height="6.9"/>
    <rect x="695.5" y="2803.2" width="6.9" height="6.9"/>
    <rect x="702.4" y="2796.3" width="6.9" height="6.9"/>
    <rect x="709.3" y="2789.3" width="6.9" height="6.9"/>
    <rect x="688.6" y="2837.8" width="6.9" height="6.9"/>
    <rect x="695.5" y="2830.9" width="6.9" height="6.9"/>
    <rect x="702.4" y="2824" width="6.9" height="6.9"/>
    <rect x="709.3" y="2817" width="6.9" height="6.9"/>
    <rect x="771.7" y="2796" width="6.9" height="6.9"/>
    <rect x="778.6" y="2782.6" width="6.9" height="13.6"/>
    <rect x="723.2" y="2734.1" width="6.9" height="6.9"/>
    <rect x="730.1" y="2734.1" width="6.9" height="6.9"/>
    <rect x="737.1" y="2734.1" width="6.9" height="6.9"/>
    <rect x="744" y="2741" width="6.9" height="6.9"/>
    <rect x="750.9" y="2747.9" width="6.9" height="6.9"/>
    <rect x="757.8" y="2754.9" width="6.9" height="6.9"/>
    <rect x="764.8" y="2761.8" width="6.9" height="6.9"/>
    <rect x="771.7" y="2768.7" width="6.9" height="6.9"/>
    <rect x="778.6" y="2775.6" width="6.9" height="6.9"/>
    <rect x="667.8" y="2830.9" width="6.9" height="6.9"/>
    <rect x="716.3" y="2810.1" width="6.9" height="6.9"/>
    <rect x="723.2" y="2803.2" width="6.9" height="6.9"/>
    <rect x="730.1" y="2796.3" width="6.9" height="6.9"/>
    <rect x="737.1" y="2789.3" width="6.9" height="6.9"/>
    <rect x="744" y="2782.4" width="6.9" height="6.9"/>
    <rect x="716.3" y="2782.4" width="6.9" height="6.9"/>
    <rect x="723.2" y="2775.5" width="6.9" height="6.9"/>
    <rect x="730.1" y="2768.6" width="6.9" height="6.9"/>
    <g>
      <text class="st9" transform="translate(400.3 3201.7)"><tspan x="0" y="0">submit</tspan><tspan x="0" y="66.6">for review</tspan></text>
      <path class="st7" d="M247.4,3123.3v58h19.3v19.3h-19.3v48.4h-19.3v-125.7h19.3ZM247.4,3104h77.4v19.3h-77.4v-19.3ZM324.8,3249v19.3h-77.4v-19.3h77.4ZM266.8,3162h58v19.3h-58v-19.3ZM344.1,3123.3v19.3h-19.3v-19.3h19.3ZM324.8,3181.3h19.3v67.7h-19.3v-67.7Z"/>
    </g>
    <polygon class="st7" points="574.7 2722.5 574.7 2886.1 422.8 2886.1 422.8 2682.7 534.9 2682.7 534.9 2689.4 541.5 2689.4 541.5 2696 548.1 2696 548.1 2702.6 554.8 2702.6 554.8 2709.3 561.4 2709.3 561.4 2715.9 568 2715.9 568 2722.5 574.7 2722.5"/>
    <rect x="416.2" y="2682.7" width="6.6" height="203.3"/>
    <rect x="574.7" y="2735.8" width="6.6" height="150.3"/>
    <rect x="422.8" y="2886" width="151.9" height="6.6"/>
    <rect x="422.8" y="2676.1" width="98.8" height="6.6"/>
    <polygon class="st8" points="581.3 2729.2 581.3 2735.8 521.6 2735.8 521.6 2676.1 528.2 2676.1 528.2 2682.7 534.9 2682.7 534.9 2689.4 541.5 2689.4 541.5 2696 548.1 2696 548.1 2702.6 554.8 2702.6 554.8 2709.3 561.4 2709.3 561.4 2715.9 568 2715.9 568 2722.5 574.7 2722.5 574.7 2729.2 581.3 2729.2"/>
    <rect x="449.3" y="2760.4" width="98.8" height="6.6"/>
    <rect x="449.3" y="2782.6" width="98.8" height="6.6"/>
    <rect x="449.3" y="2804.8" width="98.8" height="6.6"/>
    <rect x="449.3" y="2827" width="98.8" height="6.6"/>
    <g>
      <rect x="400.6" y="2698.3" width="15.6" height="6.6"/>
      <rect x="394" y="2704.9" width="6.6" height="203.3"/>
      <rect x="400.6" y="2908.3" width="151.9" height="6.6"/>
      <rect x="552.5" y="2892.7" width="6.6" height="15.6"/>
    </g>
    <g>
      <rect x="378.4" y="2720.5" width="15.6" height="6.6"/>
      <rect x="371.7" y="2727.1" width="6.6" height="203.3"/>
      <rect x="378.4" y="2930.5" width="151.9" height="6.6"/>
      <rect x="530.3" y="2914.9" width="6.6" height="15.6"/>
    </g>
    <polygon class="st7" points="422.8 2892.7 422.8 2886.1 416.2 2886.1 416.2 2704.9 400.6 2704.9 400.6 2892.7 400.6 2908.3 400.6 2908.3 552.5 2908.3 552.5 2892.7 422.8 2892.7"/>
    <polygon class="st7" points="400.6 2914.9 400.6 2908.3 394 2908.3 394 2727.1 378.4 2727.1 378.4 2914.9 378.4 2930.5 378.4 2930.5 530.3 2930.5 530.3 2914.9 400.6 2914.9"/>
    <rect class="st7" x="1268" y="665.7" width="75" height="433.5"/>
    <rect class="st7" x="446.8" y="1241.3" width="75" height="191.3"/>
    <rect class="st7" x="1193.1" y="962.4" width="75" height="224.9" transform="translate(2305.4 -155.8) rotate(90)"/>
    <rect class="st7" x="1259.6" y="1809.4" width="75" height="193.2"/>
    <rect class="st7" x="618.5" y="2002.5" width="75" height="105.3"/>
    <rect class="st7" x="624.6" y="2455.1" width="75" height="174.1"/>
    <rect class="st7" x="939" y="1607" width="75" height="716.1" transform="translate(2941.6 988.6) rotate(90)"/>
    <rect class="st7" x="864.8" y="1572" width="75" height="152.2" transform="translate(2550.4 745.8) rotate(90)"/>
    <rect class="st7" x="873.2" y="2768.6" width="75" height="135.4" transform="translate(3747 1925.6) rotate(90)"/>
    <rect class="st7" x="228.1" y="3360.3" width="75" height="101.4"/>
    <rect class="st7" x="556.6" y="3122.7" width="75" height="731.9" transform="translate(4082.7 2894.7) rotate(90)"/>
    <g>
      <polygon class="st7" points="1697.6 1606.2 1697.6 1618.8 1684.8 1618.8 1684.8 1625.2 1659.2 1625.3 1659.2 1631.7 1646.4 1631.7 1646.4 1638.1 1633.8 1638.1 1633.8 1644.5 1621 1644.5 1621 1650.9 1608.2 1650.9 1608.2 1657.3 1589 1657.3 1589 1650.9 1576.2 1650.9 1576.2 1644.5 1563.6 1644.5 1563.6 1638.1 1550.8 1638.1 1550.8 1631.7 1538 1631.7 1538 1625.3 1525.2 1625.3 1525.2 1618.9 1512.4 1618.9 1512.4 1612.5 1499.6 1612.5 1499.6 1606.2 1467.6 1606.2 1467.6 1480 1474 1480 1474 1422.5 1499.6 1422.5 1499.6 1428.9 1512.4 1428.9 1512.4 1435.2 1525.1 1435.2 1525.1 1441.6 1538 1441.6 1538 1448 1550.8 1448 1550.8 1454.4 1563.6 1454.4 1563.6 1460.8 1576.2 1460.8 1576.2 1473.6 1575.9 1473.6 1595.4 1473.6 1595.4 1480 1603 1480 1603 1473.6 1621 1473.6 1621 1460.8 1634.8 1460.8 1634.8 1454.4 1647.6 1454.4 1647.6 1448 1660.3 1448 1660.3 1441.6 1673.2 1441.6 1673.2 1435.2 1685.9 1435.2 1685.9 1428.9 1698.8 1428.9 1698.8 1422.5 1724.3 1422.5 1724.3 1473.6 1724 1473.6 1724.3 1473.6 1724.3 1480 1729.6 1480 1729.6 1606.2 1697.6 1606.2"/>
      <g>
        <rect x="1595.4" y="1486.4" width="6.4" height="183.8"/>
        <rect x="1595.4" y="1480" width="6.4" height="6.4"/>
        <g>
          <rect x="1582.6" y="1467.2" width="6.4" height="6.4"/>
          <rect x="1576.2" y="1467.2" width="6.4" height="6.4"/>
          <rect x="1569.8" y="1460.8" width="6.4" height="6.4"/>
          <rect x="1563.4" y="1460.8" width="6.4" height="6.4"/>
          <rect x="1557.2" y="1454.4" width="6.4" height="6.4"/>
          <rect x="1550.8" y="1454.4" width="6.4" height="6.4"/>
          <rect x="1544.4" y="1448" width="6.4" height="6.4"/>
          <rect x="1538" y="1448" width="6.4" height="6.4"/>
          <rect x="1531.6" y="1441.6" width="6.4" height="6.4"/>
          <rect x="1525.2" y="1441.6" width="6.4" height="6.4"/>
          <rect x="1518.8" y="1435.2" width="6.4" height="6.4"/>
          <rect x="1512.4" y="1435.2" width="6.4" height="6.4"/>
          <rect x="1506" y="1428.9" width="6.4" height="6.4"/>
          <rect x="1499.6" y="1428.9" width="6.4" height="6.4"/>
          <rect x="1493.2" y="1422.5" width="6.4" height="6.4"/>
          <rect x="1486.8" y="1422.5" width="6.4" height="6.4"/>
          <rect x="1480.4" y="1416.1" width="6.4" height="6.4"/>
          <rect x="1474" y="1416.1" width="6.4" height="6.4"/>
          <rect x="1582.6" y="1650.8" width="6.4" height="6.4"/>
          <rect x="1576.2" y="1650.8" width="6.4" height="6.4"/>
          <rect x="1569.8" y="1644.4" width="6.4" height="6.4"/>
          <rect x="1563.4" y="1644.4" width="6.4" height="6.4"/>
          <rect x="1557.2" y="1638" width="6.4" height="6.4"/>
          <rect x="1550.8" y="1638" width="6.4" height="6.4"/>
          <rect x="1544.4" y="1631.6" width="6.4" height="6.4"/>
          <rect x="1538" y="1631.6" width="6.4" height="6.4"/>
          <rect x="1531.6" y="1625.2" width="6.4" height="6.4"/>
          <rect x="1525.2" y="1625.2" width="6.4" height="6.4"/>
          <rect x="1518.8" y="1618.8" width="6.4" height="6.4"/>
          <rect x="1512.4" y="1618.8" width="6.4" height="6.4"/>
          <rect x="1506" y="1612.5" width="6.4" height="6.4"/>
          <rect x="1499.6" y="1612.5" width="6.4" height="6.4"/>
          <rect x="1493.2" y="1606.1" width="6.4" height="6.4"/>
          <rect x="1486.8" y="1606.1" width="6.4" height="6.4"/>
          <rect x="1480.4" y="1599.7" width="6.4" height="6.4"/>
          <rect x="1474" y="1599.7" width="6.4" height="6.4"/>
          <rect x="1589" y="1473.6" width="6.4" height="6.4"/>
          <rect x="1589" y="1657.4" width="6.4" height="6.4"/>
          <rect x="1467.6" y="1416.1" width="6.4" height="190.1"/>
        </g>
        <g>
          <rect x="1608.2" y="1467.2" width="6.4" height="6.4"/>
          <rect x="1614.6" y="1467.2" width="6.4" height="6.4"/>
          <rect x="1621" y="1460.8" width="6.4" height="6.4"/>
          <rect x="1627.4" y="1460.8" width="6.4" height="6.4"/>
          <rect x="1633.6" y="1454.4" width="6.4" height="6.4"/>
          <rect x="1640" y="1454.4" width="6.4" height="6.4"/>
          <rect x="1646.4" y="1448" width="6.4" height="6.4"/>
          <rect x="1652.8" y="1448" width="6.4" height="6.4"/>
          <rect x="1659.2" y="1441.6" width="6.4" height="6.4"/>
          <rect x="1665.6" y="1441.6" width="6.4" height="6.4"/>
          <rect x="1672" y="1435.2" width="6.4" height="6.4"/>
          <rect x="1678.4" y="1435.2" width="6.4" height="6.4"/>
          <rect x="1684.8" y="1428.9" width="6.4" height="6.4"/>
          <rect x="1691.2" y="1428.9" width="6.4" height="6.4"/>
          <rect x="1697.6" y="1422.5" width="6.4" height="6.4"/>
          <rect x="1704" y="1422.5" width="6.4" height="6.4"/>
          <rect x="1710.4" y="1416.1" width="6.4" height="6.4"/>
          <rect x="1716.8" y="1416.1" width="6.4" height="6.4"/>
          <rect x="1608.2" y="1650.8" width="6.4" height="6.4"/>
          <rect x="1614.6" y="1650.8" width="6.4" height="6.4"/>
          <rect x="1621" y="1644.4" width="6.4" height="6.4"/>
          <rect x="1627.4" y="1644.4" width="6.4" height="6.4"/>
          <rect x="1633.6" y="1638" width="6.4" height="6.4"/>
          <rect x="1640" y="1638" width="6.4" height="6.4"/>
          <rect x="1646.4" y="1631.6" width="6.4" height="6.4"/>
          <rect x="1652.8" y="1631.6" width="6.4" height="6.4"/>
          <rect x="1659.2" y="1625.2" width="6.4" height="6.4"/>
          <rect x="1665.6" y="1625.2" width="6.4" height="6.4"/>
          <rect x="1672" y="1618.8" width="6.4" height="6.4"/>
          <rect x="1678.4" y="1618.8" width="6.4" height="6.4"/>
          <rect x="1684.8" y="1612.5" width="6.4" height="6.4"/>
          <rect x="1691.2" y="1612.5" width="6.4" height="6.4"/>
          <rect x="1697.6" y="1606.1" width="6.4" height="6.4"/>
          <rect x="1704" y="1606.1" width="6.4" height="6.4"/>
          <rect x="1710.4" y="1599.7" width="6.4" height="6.4"/>
          <rect x="1716.8" y="1599.7" width="6.4" height="6.4"/>
          <rect x="1601.8" y="1473.6" width="6.4" height="6.4"/>
          <rect x="1601.8" y="1657.4" width="6.4" height="6.4"/>
          <rect x="1723.2" y="1554.1" width="6.4" height="52.1"/>
          <rect x="1723.2" y="1416.1" width="6.4" height="149.2"/>
        </g>
        <g>
          <g>
            <rect x="1569.8" y="1513" width="6.4" height="6.4"/>
            <rect x="1563.4" y="1513" width="6.4" height="6.4"/>
            <rect x="1557.2" y="1506.6" width="6.4" height="6.4"/>
            <rect x="1550.8" y="1506.6" width="6.4" height="6.4"/>
            <rect x="1544.4" y="1500.2" width="6.4" height="6.4"/>
            <rect x="1538" y="1500.2" width="6.4" height="6.4"/>
            <rect x="1531.6" y="1493.8" width="6.4" height="6.4"/>
            <rect x="1525.2" y="1493.8" width="6.4" height="6.4"/>
            <rect x="1518.8" y="1487.4" width="6.4" height="6.4"/>
            <rect x="1512.4" y="1487.4" width="6.4" height="6.4"/>
            <rect x="1506" y="1481.1" width="6.4" height="6.4"/>
            <rect x="1499.6" y="1481.1" width="6.4" height="6.4"/>
          </g>
          <g>
            <rect x="1569.8" y="1538.7" width="6.4" height="6.4"/>
            <rect x="1563.4" y="1538.7" width="6.4" height="6.4"/>
            <rect x="1557.2" y="1532.3" width="6.4" height="6.4"/>
            <rect x="1550.8" y="1532.3" width="6.4" height="6.4"/>
            <rect x="1544.4" y="1525.9" width="6.4" height="6.4"/>
            <rect x="1538" y="1525.9" width="6.4" height="6.4"/>
            <rect x="1531.6" y="1519.5" width="6.4" height="6.4"/>
            <rect x="1525.2" y="1519.5" width="6.4" height="6.4"/>
            <rect x="1518.8" y="1513.1" width="6.4" height="6.4"/>
            <rect x="1512.4" y="1513.1" width="6.4" height="6.4"/>
            <rect x="1506" y="1506.8" width="6.4" height="6.4"/>
            <rect x="1499.6" y="1506.8" width="6.4" height="6.4"/>
          </g>
          <g>
            <rect x="1569.8" y="1564.4" width="6.4" height="6.4"/>
            <rect x="1563.4" y="1564.4" width="6.4" height="6.4"/>
            <rect x="1557.2" y="1558" width="6.4" height="6.4"/>
            <rect x="1550.8" y="1558" width="6.4" height="6.4"/>
            <rect x="1544.4" y="1551.6" width="6.4" height="6.4"/>
            <rect x="1538" y="1551.6" width="6.4" height="6.4"/>
            <rect x="1531.6" y="1545.2" width="6.4" height="6.4"/>
            <rect x="1525.2" y="1545.2" width="6.4" height="6.4"/>
            <rect x="1518.8" y="1538.8" width="6.4" height="6.4"/>
            <rect x="1512.4" y="1538.8" width="6.4" height="6.4"/>
            <rect x="1506" y="1532.5" width="6.4" height="6.4"/>
            <rect x="1499.6" y="1532.5" width="6.4" height="6.4"/>
          </g>
          <g>
            <rect x="1569.8" y="1590.1" width="6.4" height="6.4"/>
            <rect x="1563.4" y="1590.1" width="6.4" height="6.4"/>
            <rect x="1557.2" y="1583.7" width="6.4" height="6.4"/>
            <rect x="1550.8" y="1583.7" width="6.4" height="6.4"/>
            <rect x="1544.4" y="1577.3" width="6.4" height="6.4"/>
            <rect x="1538" y="1577.3" width="6.4" height="6.4"/>
            <rect x="1531.6" y="1570.9" width="6.4" height="6.4"/>
            <rect x="1525.2" y="1570.9" width="6.4" height="6.4"/>
            <rect x="1518.8" y="1564.5" width="6.4" height="6.4"/>
            <rect x="1512.4" y="1564.5" width="6.4" height="6.4"/>
            <rect x="1506" y="1558.2" width="6.4" height="6.4"/>
            <rect x="1499.6" y="1558.2" width="6.4" height="6.4"/>
          </g>
        </g>
      </g>
      <g>
        <rect x="1642.8" y="1572.8" width="5.6" height="5.6"/>
        <rect x="1676.4" y="1572.8" width="5.6" height="5.6"/>
        <rect x="1670.8" y="1584" width="5.6" height="5.6"/>
        <rect x="1648.4" y="1584" width="5.6" height="5.6"/>
        <rect x="1642.8" y="1567.2" width="39.2" height="5.6"/>
        <rect x="1642.8" y="1578.4" width="39.2" height="5.6"/>
        <polygon class="st8" points="1693.2 1511.2 1693.2 1505.6 1687.6 1505.6 1687.6 1500 1682 1500 1682 1494.4 1676.4 1494.4 1676.4 1488.8 1648.4 1488.8 1648.4 1494.4 1642.8 1494.4 1642.8 1500 1637.2 1500 1637.2 1505.6 1631.6 1505.6 1631.6 1511.2 1626 1511.2 1626 1544.8 1631.6 1544.8 1631.6 1544.7 1631.6 1544.8 1631.6 1544.8 1631.6 1550.4 1637.2 1550.4 1637.2 1556 1642.8 1556 1642.8 1556 1642.8 1556 1642.8 1556 1642.8 1567.2 1682 1567.2 1682 1561.6 1682 1561.6 1682 1556 1687.6 1556 1687.6 1550.4 1687.6 1550.4 1693.2 1550.4 1693.2 1544.8 1698.8 1544.8 1698.8 1511.2 1693.2 1511.2"/>
        <rect x="1659.6" y="1589.6" width="5.6" height="5.6"/>
        <rect x="1665.2" y="1589.6" width="5.6" height="5.6"/>
        <rect x="1654" y="1589.6" width="5.6" height="5.6"/>
        <rect x="1654" y="1544.8" width="5.6" height="5.6"/>
        <rect x="1665.2" y="1544.8" width="5.6" height="5.6"/>
        <rect x="1654" y="1550.4" width="5.6" height="5.6"/>
        <rect x="1654" y="1556" width="5.6" height="5.6"/>
        <rect x="1654" y="1561.6" width="5.6" height="5.6"/>
        <rect x="1665.2" y="1550.4" width="5.6" height="5.6"/>
        <rect x="1665.2" y="1556" width="5.6" height="5.6"/>
        <rect x="1665.2" y="1561.6" width="5.6" height="5.6"/>
        <rect x="1648.4" y="1539.2" width="5.6" height="5.6"/>
        <rect x="1642.8" y="1533.6" width="5.6" height="5.6"/>
        <rect x="1670.8" y="1539.2" width="5.6" height="5.6"/>
        <rect x="1676.4" y="1533.6" width="5.6" height="5.6"/>
        <rect x="1642.8" y="1528" width="5.6" height="5.6"/>
        <rect x="1654" y="1528" width="5.6" height="5.6"/>
        <rect x="1665.2" y="1528" width="5.6" height="5.6"/>
        <rect x="1648.4" y="1522.4" width="5.6" height="5.6"/>
        <rect x="1659.6" y="1522.4" width="5.6" height="5.6"/>
        <rect x="1670.8" y="1522.4" width="5.6" height="5.6"/>
        <rect x="1676.4" y="1528" width="5.6" height="5.6"/>
      </g>
    </g>
    <g>
      <path class="st4" d="M894.4,2352.2l-21.5-6c-5.9-1.7-10.7-6.1-12.9-11.9l-44.2-120c-4.6-12.6,4.7-25.9,18-25.9h0l60.5,163.8Z"/>
      <polygon class="st3" points="1231.4 2355.3 895.4 2355.3 833.9 2188.4 1169.8 2188.4 1231.4 2355.3"/>
      <line class="st3" x1="956" y1="2355.3" x2="894.5" y2="2188.4"/>
      <line class="st3" x1="968.1" y1="2261.2" x2="1153.4" y2="2261.2"/>
      <line class="st3" x1="980.2" y1="2285.4" x2="1165.6" y2="2285.4"/>
      <line class="st3" x1="992.4" y1="2309.6" x2="1177.7" y2="2309.6"/>
      <path class="st4" d="M894.4,2352.2h381.3c26.4,0,43.7,18,58.8,48.1h0s-422.6,0-422.6,0l-17.6-48.1Z"/>
      <polygon class="st7" points="1290.3 2162.4 1290.3 2156.3 1172.4 2156.3 1172.4 2162.4 1166.4 2162.4 1166.4 2230.8 1172.4 2230.8 1172.4 2236.9 1258.3 2236.9 1258.3 2248.7 1271.6 2248.7 1271.6 2236.9 1290.3 2236.9 1290.3 2230.8 1296.3 2230.8 1296.3 2162.4 1290.3 2162.4"/>
      <g>
        <rect x="1290.3" y="2156.4" width="6" height="6"/>
        <rect x="1240.4" y="2212.6" width="6" height="6"/>
        <rect x="1228.4" y="2212.6" width="6" height="6"/>
        <rect x="1216.4" y="2212.6" width="6" height="6"/>
        <rect x="1290.3" y="2230.8" width="6" height="6"/>
        <rect x="1265.7" y="2242.7" width="6" height="6"/>
        <rect x="1259.7" y="2248.7" width="6" height="6"/>
        <rect x="1253.7" y="2236.7" width="6" height="23.9"/>
        <rect x="1166.6" y="2156.4" width="6" height="6"/>
        <rect x="1172.5" y="2150.4" width="117.8" height="6"/>
        <rect x="1271.6" y="2236.7" width="18.7" height="6"/>
        <rect x="1172.4" y="2236.7" width="81.3" height="6"/>
        <rect x="1296.3" y="2162.4" width="6" height="68.4"/>
        <rect x="1166.4" y="2230.8" width="6" height="6"/>
        <rect x="1160.4" y="2162.4" width="6" height="68.4"/>
      </g>
      <g>
        <path d="M956.3,2221.6h3.1l.9,2.5h3.1l.9,2.5h-3.1l3.7,10.1h-3.1l-5.5-15.1ZM962.5,2221.6h6.2l.9,2.5h-6.2l-.9-2.5ZM975.9,2224.1l.9,2.5h-3.1l3.7,10.1h-3.1l-4.6-12.6h6.2ZM975,2221.6h6.2l.9,2.5h-6.2l-.9-2.5ZM985.2,2224.1l4.6,12.6h-3.1l-4.6-12.6h3.1Z"/>
        <path d="M991.9,2221.6l2.7,7.5h-3.1l-2.7-7.5h3.1ZM995.6,2240.4h6.2l.9,2.5h-6.2l-.9-2.5ZM997.7,2229.1l2.3,6.3h-3.1l-2.3-6.3h3.1ZM1003.1,2235.4l1.8,5h-3.1l-1.8-5h3.1ZM1003.9,2229.1l2.3,6.3h-3.1l-2.3-6.3h3.1ZM1004.3,2221.6l2.7,7.5h-3.1l-2.7-7.5h3.1Z"/>
        <path d="M1016.4,2221.6h3.1l1.8,5h-3.1l-1.8-5ZM1021.3,2226.6h3.1l2.3,6.3h-3.1l-2.3-6.3ZM1029.8,2232.9l1.4,3.8h-3.1l-1.4-3.8h3.1ZM1032.9,2232.9h-3.1l-2.3-6.3h3.1l2.3,6.3ZM1031.9,2221.6l1.8,5h-3.1l-1.8-5h3.1Z"/>
        <path d="M1040,2224.1l1.4,3.8h10.9l-1.4-3.8h3.1l2.3,6.3h-14l1.4,3.8h-3.1l-3.7-10.1h3.1ZM1039.1,2221.6h10.9l.9,2.5h-10.9l-.9-2.5ZM1054.5,2234.1l.9,2.5h-10.9l-.9-2.5h10.9ZM1053.6,2231.6h3.1l.9,2.5h-3.1l-.9-2.5Z"/>
        <path d="M1058.3,2221.6h3.1l.9,2.5h3.1l.9,2.5h-3.1l3.7,10.1h-3.1l-5.5-15.1ZM1064.6,2221.6h4.7l.9,2.5h-4.7l-.9-2.5Z"/>
        <path d="M1076.8,2226.6h-3.1l-.9-2.5h3.1l.9,2.5ZM1078.6,2231.6l.9,2.5h-3.1l-.9-2.5h3.1ZM1075,2221.6h9.3l.9,2.5h-9.3l-.9-2.5ZM1081.5,2226.6l.9,2.5h-4.7l-.9-2.5h4.7ZM1079.5,2234.1h9.3l.9,2.5h-9.3l-.9-2.5ZM1087,2229.1l.9,2.5h-4.7l-.9-2.5h4.7ZM1088.3,2224.1l.9,2.5h-3.1l-.9-2.5h3.1ZM1091.1,2231.6l.9,2.5h-3.1l-.9-2.5h3.1Z"/>
        <path d="M1090.4,2216.5h3.1l.9,2.5h-3.1l-.9-2.5ZM1092.2,2221.6h3.1l5.5,15.1h-3.1l-5.5-15.1Z"/>
        <path d="M1104.6,2224.1l3.7,10.1h-3.1l-3.7-10.1h3.1ZM1103.7,2221.6h10.9l.9,2.5h-10.9l-.9-2.5ZM1108.2,2234.1h10.9l.9,2.5h-10.9l-.9-2.5ZM1118.6,2224.1l3.7,10.1h-3.1l-3.7-10.1h3.1Z"/>
        <path d="M1122.9,2221.6h3.1l.9,2.5h3.1l.9,2.5h-3.1l3.7,10.1h-3.1l-5.5-15.1ZM1129.2,2221.6h6.2l.9,2.5h-6.2l-.9-2.5ZM1139.4,2224.1l4.6,12.6h-3.1l-4.6-12.6h3.1Z"/>
      </g>
    </g>
    <g>
      <path class="st8" d="M1196.2,3228.3l-22.9-9.8,22.9,9.8,3.6,1.5s0,0,0,0l-3.6-1.6ZM1229.7,3398.8c-17.9,14.3-36.5,29.2-51.4,35.2-10.5,4.2-13.1,2.2-17.3-1.2-.2-.1-15.3-18.8,4.7-100.4,5.3-21.5,11.9-42.3,17.8-59.5,7.4-21.5,13.9-37.3,15.8-41.7.3-.7.5-1.1.5-1.2l-3.6-1.5-22.9-9.8h0l-14.8-6.3-41.2-17.7c-.4.8-3.8,8.9-8.7,21.8-2.8,7.3-6.1,16.3-9.6,26.4-6.7,19.3-14.1,42.8-20.2,67.5-9.2,37.2-13.6,69.8-13.1,97,.8,42.9,13.8,75,38.7,95.2,14.9,12.1,36.4,23.8,64.2,23.8s27.5-2.6,43.3-9c27-10.9,50.8-29.9,73.8-48.3,13.1-10.5,25.5-20.3,36.5-27.1,11.5-7,15.9-7.1,16-7.1l3.3-89.7c-42.6-1.6-77.8,26.5-111.8,53.7Z"/>
      <path class="st8" d="M1370.6,3438.6l122.3-79.8c.9-.7,2.2-.9,3.3-.3,25.4,12.5,31,39.7,26.4,65-4.4,24.4-30.5,52.5-70.6,52.8-40,.3-82.5-36.8-81.5-37.6Z"/>
      <circle cx="1114.2" cy="3268.3" r="4.6"/>
      <circle cx="1156.7" cy="3496.3" r="4.6"/>
      <path d="M1199.3,3231.1c-1.8,4.4-8.3,20.2-15.8,41.7l-84.6-30.2c3.5-10.1,6.8-19.1,9.6-26.4l64.7,2.3h0l13.5.5c1.2,2.8,5.5,6,9.4,9.3,0,0,0,0,0,0,1.1.9,2.1,1.8,3,2.8Z"/>
      <ellipse cx="1504.4" cy="3407" rx="6.3" ry="11.6" transform="translate(-547.7 299) rotate(-9.6)"/>
      <circle cx="1497.9" cy="3379.2" r="4.6"/>
      <ellipse cx="1122.2" cy="3481.2" rx="6.3" ry="11.6" transform="translate(-1590.3 1027.5) rotate(-30)"/>
      <polygon class="st7" points="1424.3 3434.8 1248.7 3434.8 1248.7 3199.8 1370.6 3199.8 1384.1 3234.3 1424.3 3249.6 1424.3 3434.8"/>
      <g>
        <rect x="1241" y="3199.8" width="7.7" height="235"/>
        <rect x="1424.3" y="3261.1" width="7.7" height="173.7"/>
        <rect x="1248.7" y="3434.8" width="175.6" height="7.7"/>
        <rect x="1248.7" y="3192.1" width="114.2" height="7.7"/>
        <rect class="st8" x="1362.9" y="3192.1" width="7.7" height="61.3"/>
        <rect class="st8" x="1370.6" y="3199.8" width="7.7" height="7.7"/>
        <rect class="st8" x="1370.6" y="3207.4" width="15.3" height="7.7"/>
        <rect class="st8" x="1370.6" y="3215.1" width="23" height="7.7"/>
        <rect class="st8" x="1370.6" y="3222.8" width="30.7" height="7.7"/>
        <rect class="st8" x="1370.6" y="3230.4" width="38.3" height="7.7"/>
        <rect class="st8" x="1370.6" y="3238.1" width="46" height="7.7"/>
        <rect class="st8" x="1370.6" y="3245.8" width="53.7" height="7.7"/>
        <rect class="st8" x="1362.9" y="3253.4" width="69" height="7.7"/>
      </g>
      <path class="st8" d="M1398.7,3356.3c.8-3.1,3.2-5.6,7.2-7.4,17.2-7.9,65.3-2.8,90.3,9.6,1.5.8,2.2,2.6,1.4,4.1-.7,1.4-2.3,2-3.7,1.6l-16.2,49.3c.6,1.1,1.2,2.2,1.5,3.2.4,1.3,0,2.7-1.1,3.5-.2.2-.5.3-.8.4-1.6.5-3.4-.3-3.9-1.9-2.8-8.4-21.2-19-37.4-28.2-21.5-12.3-40.1-23-37.2-34.1Z"/>
      <path class="st6" d="M1480.6,3425.6c-2.6-17.1-28.5-25.9-44.7-35.2-21.5-12.3-40.1-23-37.2-34.1.8-3.1,3.2-5.6,7.2-7.4,7.8-3.6,22-4.5,37.4-3.2"/>
      <path class="st4" d="M1268.8,3158c5.9,37.5-63,79.6-89.8,83.9-27.1,4.3-105.4-14.5-111.4-52-5.9-37.5-14-67.4,89.8-83.9,95.7-15.1,105.4,14.5,111.4,52Z"/>
      <circle cx="1158.6" cy="3164.4" r="4.9"/>
      <circle cx="1171.4" cy="3162.7" r="4.9"/>
      <path class="st5" d="M1241.7,3146.6h0c-3.4,16.5-11.5,27.3-21.9,28.9l-100.1,15.8c-10.3,1.6-21.4-6.1-29.7-20.8h0"/>
      <g>
        <path class="st7" d="M1177.3,3144.7c4,2.9,8.6,4.9,13.6,5.7,1.3.2,2.5.3,3.8.4,1.8,0,3.6,0,5.4-.2.5,0,1.1-.2,1.6-.2,17.4-3.1,29-19.8,25.9-37.1-.8-4.3-2.4-8.3-4.6-11.7-.4-.6-.8-1.2-1.3-1.8-1.5-2-3.2-3.8-5.1-5.4-.6-.5-1.2-1-1.8-1.4-6.8-4.9-15.5-7.1-24.3-5.5-17.4,3.1-29,19.7-25.9,37.1,1.5,8.5,6.2,15.5,12.7,20.2Z"/>
        <path class="st6" d="M1164.7,3124.5c1.5,8.5,6.2,15.5,12.7,20.2,6.8,4.9,15.5,7.2,24.5,5.6,17.4-3.1,29-19.7,25.9-37.1-1.5-8.5-6.3-15.6-12.8-20.3-6.8-4.9-15.5-7.1-24.3-5.5-17.4,3.1-29,19.7-25.9,37.1Z"/>
        <path d="M1196.5,3146.5c1.1,1.5,2.4,2.9,3.7,4.1.5,0,1.1-.2,1.6-.2,17.4-3.1,29-19.8,25.9-37.1-.8-4.3-2.4-8.3-4.6-11.7-.4-.6-.8-1.2-1.3-1.8-6.8-.5-13.7,1.4-19.6,5.8-12.9,9.7-15.5,28.1-5.7,41Z"/>
      </g>
      <g>
        <path class="st7" d="M1093.2,3137.3c1.5,8.5,6.2,15.5,12.7,20.2,6.8,4.9,15.5,7.2,24.5,5.6,17.4-3.1,29-19.7,25.9-37.1-1.5-8.5-6.3-15.6-12.8-20.3-6.8-4.9-15.5-7.1-24.3-5.5-17.4,3.1-29,19.7-25.9,37.1Z"/>
        <path class="st6" d="M1093.2,3137.3c1.5,8.5,6.2,15.5,12.7,20.2,6.8,4.9,15.5,7.2,24.5,5.6,17.4-3.1,29-19.7,25.9-37.1-1.5-8.5-6.3-15.6-12.8-20.3-6.8-4.9-15.5-7.1-24.3-5.5-17.4,3.1-29,19.7-25.9,37.1Z"/>
        <path d="M1124.7,3159.3c1.1,1.5,2.4,2.9,3.7,4.1.5,0,1.1-.2,1.6-.2,17.4-3.1,29-19.8,25.9-37.1-.8-4.3-2.4-8.3-4.6-11.7-.4-.6-.8-1.2-1.3-1.8-6.8-.5-13.7,1.4-19.6,5.8-12.9,9.7-15.5,28.1-5.7,41Z"/>
      </g>
      <g>
        <line class="st5" x1="1212.3" y1="3177.8" x2="1217" y2="3200.4"/>
        <polyline class="st5" points="1210.2 3209.5 1217 3200.4 1226.4 3207.6"/>
      </g>
      <path class="st6" d="M1222.3,3222.3c-16.3,10.6-33,17.9-43.4,19.5-15.7,2.5-48.4-2.7-74.4-14.8"/>
      <g>
        <rect x="1311" y="3374.3" width="7.2" height="7.2"/>
        <rect x="1354.3" y="3374.3" width="7.2" height="7.2"/>
        <rect x="1347" y="3388.7" width="7.2" height="7.2"/>
        <rect x="1318.2" y="3388.7" width="7.2" height="7.2"/>
        <rect x="1311" y="3367.1" width="50.5" height="7.2"/>
        <rect x="1311" y="3381.5" width="50.5" height="7.2"/>
        <polygon class="st1" points="1375.9 3295 1375.9 3287.7 1368.7 3287.7 1368.7 3280.5 1361.5 3280.5 1361.5 3273.3 1354.3 3273.3 1354.3 3266.1 1318.2 3266.1 1318.2 3273.3 1311 3273.3 1311 3280.5 1303.8 3280.5 1303.8 3287.7 1296.6 3287.7 1296.6 3295 1289.4 3295 1289.4 3338.2 1296.6 3338.2 1296.6 3338.1 1296.6 3338.2 1296.6 3338.2 1296.6 3345.4 1303.8 3345.4 1303.8 3352.6 1311 3352.6 1311 3352.6 1311 3352.6 1311 3352.6 1311 3367.1 1361.5 3367.1 1361.5 3359.9 1361.5 3359.8 1361.5 3352.6 1368.7 3352.6 1368.7 3345.4 1368.6 3345.4 1375.9 3345.4 1375.9 3338.2 1383.1 3338.2 1383.1 3295 1375.9 3295"/>
        <rect x="1332.6" y="3395.9" width="7.2" height="7.2"/>
        <rect x="1339.8" y="3395.9" width="7.2" height="7.2"/>
        <rect x="1325.4" y="3395.9" width="7.2" height="7.2"/>
        <rect x="1325.4" y="3338.2" width="7.2" height="7.2"/>
        <rect x="1339.8" y="3338.2" width="7.2" height="7.2"/>
        <rect x="1325.4" y="3345.4" width="7.2" height="7.2"/>
        <rect x="1325.4" y="3352.6" width="7.2" height="7.2"/>
        <rect x="1325.4" y="3359.8" width="7.2" height="7.2"/>
        <rect x="1339.8" y="3345.4" width="7.2" height="7.2"/>
        <rect x="1339.8" y="3352.6" width="7.2" height="7.2"/>
        <rect x="1339.8" y="3359.8" width="7.2" height="7.2"/>
        <rect x="1318.2" y="3331" width="7.2" height="7.2"/>
        <rect x="1311" y="3323.8" width="7.2" height="7.2"/>
        <rect x="1347" y="3331" width="7.2" height="7.2"/>
        <rect x="1354.3" y="3323.8" width="7.2" height="7.2"/>
        <rect x="1311" y="3316.6" width="7.2" height="7.2"/>
        <rect x="1325.4" y="3316.6" width="7.2" height="7.2"/>
        <rect x="1339.8" y="3316.6" width="7.2" height="7.2"/>
        <rect x="1318.2" y="3309.4" width="7.2" height="7.2"/>
        <rect x="1332.6" y="3309.4" width="7.2" height="7.2"/>
        <rect x="1347" y="3309.4" width="7.2" height="7.2"/>
        <rect x="1354.3" y="3316.6" width="7.2" height="7.2"/>
      </g>
    </g>
    <g>
      <rect class="st8" x="1550.2" y="1821.8" width="17.6" height="434.6"/>
      <g>
        <rect class="st8" x="1567.7" y="1821.8" width="17.6" height="17.6"/>
        <rect class="st8" x="1532.6" y="1821.8" width="17.6" height="17.6"/>
        <rect class="st8" x="1532.6" y="1839.4" width="52.7" height="17.6"/>
        <rect class="st8" x="1585.3" y="1839.4" width="17.6" height="17.6"/>
        <rect class="st8" x="1515" y="1839.4" width="17.6" height="17.6"/>
        <rect class="st8" x="1550.2" y="1804.2" width="17.6" height="17.6"/>
      </g>
    </g>
    <rect class="st8" x="1550.2" y="2187" width="17.6" height="17.6"/>
    <rect class="st8" x="1550.2" y="2222" width="17.6" height="17.6"/>
    <rect class="st8" x="1550.2" y="2257.2" width="17.6" height="17.6"/>
    <rect class="st8" x="1550.2" y="2292.2" width="17.6" height="17.6"/>
    <rect class="st8" x="1550.2" y="2327.3" width="17.6" height="17.6"/>
    <rect class="st8" x="1550.2" y="2362.4" width="17.6" height="17.6"/>
    <rect class="st8" x="1550.2" y="2397.5" width="17.6" height="17.6"/>
    <rect class="st8" x="1550.2" y="2432.6" width="17.6" height="17.6"/>
    <rect class="st8" x="1550.2" y="2467.7" width="17.6" height="17.6"/>
    <rect class="st8" x="1550.2" y="2502.8" width="17.6" height="17.6"/>
    <rect class="st8" x="1515" y="2502.8" width="17.6" height="17.6"/>
    <rect class="st8" x="1479.9" y="2502.8" width="17.6" height="17.6"/>
    <rect class="st8" x="1444.7" y="2502.8" width="17.6" height="17.6"/>
    <rect class="st8" x="1409.6" y="2502.8" width="17.6" height="17.6"/>
    <rect class="st8" x="1409.6" y="2537.9" width="17.6" height="17.6" transform="translate(-1128.4 3965) rotate(-90)"/>
    <rect class="st8" x="1409.6" y="2573.1" width="17.6" height="17.6" transform="translate(-1163.5 4000.2) rotate(-90)"/>
    <rect class="st8" x="1409.6" y="2608.2" width="17.6" height="17.6" transform="translate(-1198.7 4035.4) rotate(-90)"/>
    <rect class="st8" x="1409.6" y="2625.8" width="17.6" height="17.6" transform="translate(-1216.2 4052.9) rotate(-90)"/>
    <rect class="st8" x="1409.6" y="2643.4" width="17.6" height="17.6" transform="translate(-1233.8 4070.5) rotate(-90)"/>
    <rect class="st8" x="1409.6" y="2661" width="17.6" height="17.6" transform="translate(-1251.4 4088.1) rotate(-90)"/>
    <polygon class="st1" points="1000.6 1186.6 1000.6 1197.2 1005.9 1197.2 1005.9 1202.5 1011.2 1202.5 1011.2 1207.8 1016.5 1207.8 1016.5 1213.1 1027.1 1213.1 1027.1 1207.8 1032.5 1207.8 1032.5 1202.5 1037.8 1202.5 1037.8 1197.2 1043.1 1197.2 1043.1 1186.6 1037.8 1186.6 1037.8 1181.3 1032.5 1181.3 1032.5 1176 1027.1 1176 1027.1 1170.6 1016.5 1170.6 1016.5 1176 1011.2 1176 1011.2 1181.3 1005.9 1181.3 1005.9 1186.6 1000.6 1186.6"/>
    <polygon class="st8" points="1083.9 1292.3 1083.9 1302.9 1089.2 1302.9 1089.2 1308.2 1094.5 1308.2 1094.5 1313.5 1099.9 1313.5 1099.9 1318.8 1110.5 1318.8 1110.5 1313.5 1115.8 1313.5 1115.8 1308.2 1121.1 1308.2 1121.1 1302.9 1126.4 1302.9 1126.4 1292.3 1121.1 1292.3 1121.1 1286.9 1115.8 1286.9 1115.8 1281.6 1110.5 1281.6 1110.5 1276.3 1099.9 1276.3 1099.9 1281.6 1094.5 1281.6 1094.5 1286.9 1089.2 1286.9 1089.2 1292.3 1083.9 1292.3"/>
    <rect x="1102.5" y="1213.1" width="5.3" height="63.2"/>
    <rect x="1097.2" y="1260.9" width="5.3" height="5.3"/>
    <rect x="1091.9" y="1260.9" width="5.3" height="5.3"/>
    <rect x="1086.6" y="1260.9" width="5.3" height="5.3"/>
    <rect x="1067" y="1260.9" width="19.6" height="5.3"/>
    <rect x="1061.7" y="1255.6" width="5.3" height="5.3"/>
    <rect x="1056.4" y="1250.3" width="5.3" height="5.3"/>
    <rect x="1051" y="1245" width="5.3" height="5.3"/>
    <rect x="1045.7" y="1239.6" width="5.3" height="5.3"/>
    <rect x="1040.4" y="1234.3" width="5.3" height="5.3"/>
    <rect x="1035.1" y="1229" width="5.3" height="5.3"/>
    <rect x="1029.8" y="1223.7" width="5.3" height="5.3"/>
    <rect x="1024.5" y="1218.4" width="5.3" height="5.3"/>
    <rect x="1019.2" y="1213.1" width="5.3" height="5.3"/>
    <polygon class="st8" points="1083.9 1186.6 1083.9 1197.2 1089.2 1197.2 1089.2 1202.5 1094.5 1202.5 1094.5 1207.8 1099.9 1207.8 1099.9 1213.1 1110.5 1213.1 1110.5 1207.8 1115.8 1207.8 1115.8 1202.5 1121.1 1202.5 1121.1 1197.2 1126.4 1197.2 1126.4 1186.6 1121.1 1186.6 1121.1 1181.3 1115.8 1181.3 1115.8 1175.9 1110.5 1175.9 1110.5 1170.6 1099.9 1170.6 1099.9 1175.9 1094.5 1175.9 1094.5 1181.3 1089.2 1181.3 1089.2 1186.6 1083.9 1186.6"/>
  </g>
</svg>