<?xml version="1.0" encoding="UTF-8"?>
<svg id="Design" xmlns="http://www.w3.org/2000/svg" viewBox="0 0 480 480">
  <defs>
    <style>
      .cls-1 {
        fill: #85a5ff;
      }

      .cls-2 {
        fill: #fff;
      }
    </style>
  </defs>
  <polygon class="cls-2" points="205.12 437.78 205.13 427.83 195.16 427.83 195.18 417.66 175.26 417.66 175.26 407.7 155.33 407.7 155.33 397.74 135.69 397.74 135.69 387.77 115.77 387.77 115.77 377.81 95.84 377.81 95.84 367.84 75.91 367.84 75.91 357.88 55.98 358.03 55.98 348.06 36.06 348.06 36.06 338.1 6.17 338.13 6.17 42.22 36.06 42.22 36.06 52.18 55.98 52.18 55.98 62.15 75.91 62.15 75.91 71.96 95.84 71.96 95.84 81.93 115.77 81.93 115.77 91.89 135.69 91.89 135.69 101.86 155.62 101.86 155.33 111.82 175.26 111.82 175.26 121.78 195.18 121.78 195.18 131.75 205.13 131.75 205.13 141.7 215.09 141.7 215.09 131.75 225.03 131.75 225.03 121.78 244.96 121.78 244.96 111.82 264.89 111.82 264.6 101.86 284.52 101.86 284.52 91.89 304.45 91.89 304.45 81.93 324.38 81.93 324.38 71.96 344.31 71.96 344.31 62.15 364.23 62.15 364.23 52.18 384.16 52.18 384.16 42.22 414.05 42.22 414.05 118.18 424.02 118.18 424.02 128.15 433.98 128.15 433.98 138.11 443.94 138.11 443.94 148.07 453.91 148.07 453.91 158.04 463.87 158.04 463.87 168 473.83 168 473.83 197.46 463.87 197.25 404.09 257.03 414.05 257.03 414.05 338.13 384.16 338.1 384.16 348.06 364.23 348.06 364.23 358.03 344.31 357.88 344.31 367.84 324.38 367.84 324.38 377.81 304.45 377.81 304.45 387.77 284.52 387.77 284.52 397.74 264.89 397.74 264.89 407.7 244.96 407.7 244.96 417.66 225.03 417.66 225.05 427.83 215.09 427.83 215.09 437.78 205.12 437.78"/>
  <g>
    <rect class="cls-1" x="284.52" y="227.58" width="9.96" height="9.96"/>
    <rect class="cls-1" x="294.49" y="237.53" width="9.96" height="9.96"/>
    <rect class="cls-1" x="274.56" y="217.6" width="9.96" height="9.96"/>
    <rect class="cls-1" x="284.52" y="207.64" width="9.96" height="23.6"/>
    <rect class="cls-1" x="294.49" y="197.68" width="9.96" height="39.85"/>
    <rect class="cls-1" x="304.45" y="187.71" width="9.96" height="60.65"/>
    <rect x="205.12" y="151.66" width="9.96" height="286.12"/>
    <rect x="205.13" y="141.7" width="9.96" height="9.96"/>
    <rect x="185.22" y="121.78" width="9.96" height="9.96"/>
    <rect x="175.26" y="121.78" width="9.96" height="9.96"/>
    <rect x="165.29" y="111.82" width="9.96" height="9.96"/>
    <rect x="155.33" y="111.82" width="9.96" height="9.96"/>
    <rect x="145.66" y="101.86" width="9.96" height="9.96"/>
    <rect x="135.69" y="101.86" width="9.96" height="9.96"/>
    <rect x="125.73" y="91.89" width="9.96" height="9.96"/>
    <rect x="115.77" y="91.89" width="9.96" height="9.96"/>
    <rect x="105.8" y="81.93" width="9.96" height="9.96"/>
    <rect x="95.84" y="81.93" width="9.96" height="9.96"/>
    <rect x="85.88" y="71.96" width="9.96" height="9.96"/>
    <rect x="75.91" y="71.96" width="9.96" height="9.96"/>
    <rect x="65.95" y="62.15" width="9.96" height="9.96"/>
    <rect x="55.98" y="62.15" width="9.96" height="9.96"/>
    <rect x="46.02" y="52.18" width="9.96" height="9.96"/>
    <rect x="36.06" y="52.18" width="9.96" height="9.96"/>
    <rect x="26.09" y="42.22" width="9.96" height="9.96"/>
    <rect x="16.13" y="42.22" width="9.96" height="9.96"/>
    <rect x="185.22" y="407.7" width="9.96" height="9.96"/>
    <rect x="175.26" y="407.7" width="9.96" height="9.96"/>
    <rect x="165.29" y="397.74" width="9.96" height="9.96"/>
    <rect x="155.33" y="397.74" width="9.96" height="9.96"/>
    <rect x="145.66" y="387.77" width="9.96" height="9.96"/>
    <rect x="135.69" y="387.77" width="9.96" height="9.96"/>
    <rect x="125.73" y="377.81" width="9.96" height="9.96"/>
    <rect x="115.77" y="377.81" width="9.96" height="9.96"/>
    <rect x="105.8" y="367.84" width="9.96" height="9.96"/>
    <rect x="95.84" y="367.84" width="9.96" height="9.96"/>
    <rect x="85.88" y="357.88" width="9.96" height="9.96"/>
    <rect x="75.91" y="357.88" width="9.96" height="9.96"/>
    <rect x="65.95" y="348.06" width="9.96" height="9.96"/>
    <rect x="55.98" y="348.06" width="9.96" height="9.96"/>
    <rect x="46.02" y="338.1" width="9.96" height="9.96"/>
    <rect x="36.06" y="338.1" width="9.96" height="9.96"/>
    <rect x="26.09" y="328.14" width="9.96" height="9.96"/>
    <rect x="16.13" y="328.14" width="9.96" height="9.96"/>
    <rect x="195.16" y="131.75" width="9.96" height="9.96"/>
    <rect x="195.16" y="417.87" width="9.96" height="9.96"/>
    <rect x="6.17" y="42.22" width="9.96" height="295.91"/>
    <rect x="225.03" y="121.78" width="9.96" height="9.96"/>
    <rect x="235" y="121.78" width="9.96" height="9.96"/>
    <rect x="244.96" y="111.82" width="9.96" height="9.96"/>
    <rect x="254.92" y="111.82" width="9.96" height="9.96"/>
    <rect x="264.6" y="101.86" width="9.96" height="9.96"/>
    <rect x="274.56" y="101.86" width="9.96" height="9.96"/>
    <rect x="284.52" y="91.89" width="9.96" height="9.96"/>
    <rect x="294.49" y="91.89" width="9.96" height="9.96"/>
    <rect x="304.45" y="81.93" width="9.96" height="9.96"/>
    <rect x="314.42" y="81.93" width="9.96" height="9.96"/>
    <rect x="324.38" y="71.96" width="9.96" height="9.96"/>
    <rect x="334.34" y="71.96" width="9.96" height="9.96"/>
    <rect x="344.31" y="62.15" width="9.96" height="9.96"/>
    <rect x="354.27" y="62.15" width="9.96" height="9.96"/>
    <rect x="364.23" y="52.18" width="9.96" height="9.96"/>
    <rect x="374.2" y="52.18" width="9.96" height="9.96"/>
    <rect x="384.16" y="42.22" width="9.96" height="9.96"/>
    <rect x="394.12" y="42.22" width="9.96" height="9.96"/>
    <rect x="225.03" y="407.7" width="9.96" height="9.96"/>
    <rect x="235" y="407.7" width="9.96" height="9.96"/>
    <rect x="244.96" y="397.74" width="9.96" height="9.96"/>
    <rect x="254.92" y="397.74" width="9.96" height="9.96"/>
    <rect x="264.6" y="387.77" width="9.96" height="9.96"/>
    <rect x="274.56" y="387.77" width="9.96" height="9.96"/>
    <rect x="284.52" y="377.81" width="9.96" height="9.96"/>
    <rect x="294.49" y="377.81" width="9.96" height="9.96"/>
    <rect x="304.45" y="367.84" width="9.96" height="9.96"/>
    <rect x="314.42" y="367.84" width="9.96" height="9.96"/>
    <rect x="324.38" y="357.88" width="9.96" height="9.96"/>
    <rect x="334.34" y="357.88" width="9.96" height="9.96"/>
    <rect x="344.31" y="348.06" width="9.96" height="9.96"/>
    <rect x="354.27" y="348.06" width="9.96" height="9.96"/>
    <rect x="364.23" y="338.1" width="9.96" height="9.96"/>
    <rect x="374.2" y="338.1" width="9.96" height="9.96"/>
    <rect x="384.16" y="328.14" width="9.96" height="9.96"/>
    <rect x="394.12" y="328.14" width="9.96" height="9.96"/>
    <rect x="215.09" y="131.75" width="9.96" height="9.96"/>
    <rect x="215.09" y="417.87" width="9.96" height="9.96"/>
    <rect x="404.09" y="257.03" width="9.96" height="81.1"/>
    <rect x="404.09" y="42.22" width="9.96" height="66"/>
    <g>
      <rect x="55.35" y="128.36" width="11.43" height="160.57"/>
      <rect x="128.05" y="242.64" width="41.46" height="11.43"/>
      <rect x="105.41" y="266.07" width="11.32" height="22.65"/>
      <rect x="116.73" y="288.71" width="11.32" height="22.65"/>
      <rect x="139.38" y="265.5" width="11.32" height="22.65"/>
      <rect x="150.7" y="288.15" width="11.32" height="22.65"/>
      <rect x="128.05" y="310.79" width="22.65" height="11.32"/>
      <rect x="55.35" y="277.5" width="27.19" height="11.43"/>
      <rect x="82.54" y="266.07" width="11.43" height="11.43"/>
      <rect x="93.97" y="254.63" width="11.43" height="11.43"/>
      <rect x="128.05" y="254.08" width="11.43" height="11.43"/>
      <rect x="78.22" y="151.23" width="11.43" height="11.43"/>
      <rect x="66.78" y="139.8" width="11.43" height="11.43"/>
      <rect x="89.65" y="162.67" width="11.43" height="11.43"/>
      <rect x="101.09" y="174.1" width="11.43" height="11.43"/>
      <rect x="112.52" y="185.5" width="11.43" height="11.43"/>
      <rect x="123.96" y="196.93" width="11.43" height="11.43"/>
      <rect x="135.39" y="208.37" width="11.43" height="11.43"/>
      <rect x="146.64" y="219.8" width="11.43" height="11.43"/>
      <rect x="158.08" y="231.24" width="11.43" height="11.43"/>
    </g>
    <rect x="314.4" y="257.46" width="9.96" height="9.96"/>
    <rect x="324.36" y="267.41" width="9.96" height="9.96"/>
    <rect class="cls-1" x="334.31" y="277.37" width="9.96" height="9.96"/>
    <rect class="cls-1" x="344.27" y="287.35" width="9.96" height="9.96"/>
    <rect x="264.6" y="227.58" width="9.96" height="9.96"/>
    <rect x="264.6" y="237.53" width="9.96" height="9.96"/>
    <rect x="264.6" y="247.49" width="9.96" height="9.96"/>
    <rect x="264.6" y="257.06" width="9.96" height="9.96"/>
    <rect x="264.6" y="267.01" width="9.96" height="9.96"/>
    <rect x="264.6" y="276.97" width="9.96" height="9.96"/>
    <rect x="264.6" y="286.93" width="9.96" height="9.96"/>
    <rect x="264.6" y="296.88" width="9.96" height="9.96"/>
    <rect x="264.6" y="306.85" width="9.96" height="9.96"/>
    <rect x="274.56" y="296.88" width="9.96" height="9.96"/>
    <rect x="274.56" y="286.92" width="9.96" height="9.96"/>
    <rect x="284.52" y="296.88" width="9.96" height="9.96"/>
    <rect x="274.56" y="306.85" width="9.96" height="9.96"/>
    <rect x="284.52" y="306.85" width="9.96" height="9.96"/>
    <rect x="294.49" y="306.85" width="9.96" height="9.96"/>
    <rect x="304.43" y="306.85" width="9.96" height="9.96"/>
    <rect x="314.4" y="306.85" width="9.96" height="9.96"/>
    <rect x="324.36" y="306.85" width="9.96" height="9.96"/>
    <rect x="334.33" y="306.85" width="9.96" height="9.96"/>
    <rect x="344.31" y="306.85" width="9.96" height="9.96"/>
    <rect class="cls-1" x="314.42" y="177.75" width="9.96" height="89.67"/>
    <rect class="cls-1" x="324.38" y="167.79" width="9.96" height="99.62"/>
    <rect class="cls-1" x="334.34" y="157.82" width="9.96" height="119.55"/>
    <rect class="cls-1" x="344.31" y="147.86" width="9.96" height="139.49"/>
    <rect class="cls-1" x="354.27" y="137.89" width="9.96" height="159"/>
    <rect class="cls-1" x="364.23" y="127.93" width="9.96" height="158.99"/>
    <rect x="374.2" y="117.97" width="9.96" height="9.96"/>
    <rect x="314.4" y="237.53" width="9.96" height="9.96"/>
    <rect x="324.36" y="227.57" width="9.96" height="9.96"/>
    <rect x="334.33" y="217.6" width="9.96" height="9.96"/>
    <rect x="344.29" y="207.64" width="9.96" height="9.96"/>
    <rect x="354.25" y="197.68" width="9.96" height="9.96"/>
    <rect x="364.22" y="187.71" width="9.96" height="9.96"/>
    <rect x="334.34" y="257.45" width="9.96" height="9.96"/>
    <rect x="344.31" y="247.48" width="9.96" height="9.96"/>
    <rect x="354.27" y="237.52" width="9.96" height="9.96"/>
    <rect x="364.23" y="227.55" width="9.96" height="9.96"/>
    <rect class="cls-1" x="354.27" y="296.88" width="9.96" height="9.96"/>
    <rect class="cls-1" x="364.23" y="286.92" width="9.96" height="9.96"/>
    <rect class="cls-1" x="374.2" y="276.96" width="9.96" height="9.96"/>
    <rect class="cls-1" x="384.16" y="266.99" width="9.96" height="9.96"/>
    <rect class="cls-1" x="394.12" y="257.03" width="9.96" height="9.96"/>
    <rect class="cls-1" x="404.09" y="247.07" width="9.96" height="9.96"/>
    <rect class="cls-1" x="414.05" y="237.1" width="9.96" height="9.96"/>
    <rect class="cls-1" x="424.02" y="227.14" width="9.96" height="9.96"/>
    <rect class="cls-1" x="433.98" y="217.18" width="9.96" height="9.96"/>
    <rect class="cls-1" x="443.94" y="207.21" width="9.96" height="9.96"/>
    <rect x="453.91" y="197.25" width="9.96" height="9.96"/>
    <rect x="463.87" y="177.96" width="9.96" height="19.5"/>
    <rect x="384.16" y="108.22" width="9.96" height="9.96"/>
    <rect x="394.12" y="108.22" width="9.96" height="9.96"/>
    <rect x="404.09" y="108.22" width="9.96" height="9.96"/>
    <rect x="414.05" y="118.18" width="9.96" height="9.96"/>
    <rect x="424.02" y="128.15" width="9.96" height="9.96"/>
    <rect x="433.98" y="138.11" width="9.96" height="9.96"/>
    <rect x="443.94" y="148.07" width="9.96" height="9.96"/>
    <rect x="453.91" y="158.04" width="9.96" height="9.96"/>
    <rect class="cls-1" x="374.18" y="137.89" width="9.96" height="139.06"/>
    <rect class="cls-1" x="384.14" y="147.86" width="9.96" height="119.14"/>
    <rect class="cls-1" x="394.11" y="157.82" width="9.96" height="99.23"/>
    <rect class="cls-1" x="404.07" y="167.79" width="9.96" height="79.28"/>
    <rect class="cls-1" x="414.03" y="177.75" width="9.96" height="59.35"/>
    <rect class="cls-1" x="424.02" y="187.7" width="9.96" height="39.44"/>
    <rect class="cls-1" x="433.99" y="197.66" width="9.96" height="19.73"/>
    <rect x="463.87" y="168" width="9.96" height="9.96"/>
    <rect x="304.43" y="247.49" width="9.96" height="9.96"/>
    <rect x="374.2" y="217.59" width="9.96" height="9.96"/>
    <rect x="384.16" y="207.63" width="9.96" height="9.96"/>
    <rect x="394.12" y="197.66" width="9.96" height="9.96"/>
    <rect x="404.09" y="187.7" width="9.96" height="9.96"/>
    <rect x="414.05" y="177.74" width="9.96" height="9.96"/>
    <rect x="374.18" y="177.75" width="9.96" height="9.96"/>
    <rect x="384.14" y="167.79" width="9.96" height="9.96"/>
    <rect x="394.11" y="157.82" width="9.96" height="9.96"/>
  </g>
</svg>