<?xml version="1.0" encoding="UTF-8"?>
<svg id="Design" xmlns="http://www.w3.org/2000/svg" viewBox="0 0 480 480">
  <defs>
    <style>
      .cls-1 {
        fill: #85a5ff;
      }
    </style>
  </defs>
  <rect class="cls-1" x="69.14" y="149.24" width="135.63" height="9.96"/>
  <rect class="cls-1" x="69.14" y="149.24" width="135.63" height="113.39"/>
  <rect class="cls-1" x="49.21" y="169.16" width="9.96" height="73.54"/>
  <rect class="cls-1" x="59.17" y="159.2" width="9.97" height="9.96"/>
  <rect class="cls-1" x="59.17" y="242.7" width="9.97" height="9.96"/>
  <rect class="cls-1" x="69.14" y="252.66" width="31.1" height="9.97"/>
  <rect class="cls-1" x="100.24" y="262.63" width="9.96" height="9.96"/>
  <rect class="cls-1" x="110.93" y="207.47" width="9.97" height="9.97"/>
  <polygon class="cls-1" points="204.99 252.66 204.99 262.63 130.13 262.63 130.13 292.52 120.17 292.52 120.17 282.55 110.2 282.55 110.2 272.59 120.17 272.59 120.17 252.66 204.99 252.66"/>
  <rect class="cls-1" x="130.95" y="207.47" width="9.96" height="9.97"/>
  <rect class="cls-1" x="150.96" y="207.47" width="9.96" height="9.97"/>
  <rect class="cls-1" x="204.77" y="159.2" width="9.97" height="9.96"/>
  <rect class="cls-1" x="204.99" y="242.7" width="9.96" height="9.96"/>
  <rect class="cls-1" x="214.95" y="169.16" width="9.96" height="73.54"/>
  <rect class="cls-1" x="59.17" y="159.2" width="9.97" height="9.96"/>
  <rect x="110.93" y="207.47" width="9.97" height="9.97"/>
  <rect x="130.95" y="207.47" width="9.96" height="9.97"/>
  <rect x="150.96" y="207.47" width="9.96" height="9.97"/>
  <rect class="cls-1" x="59.17" y="242.7" width="9.97" height="9.96"/>
  <rect class="cls-1" x="100.24" y="262.63" width="22.21" height="9.96"/>
  <rect class="cls-1" x="110.2" y="272.59" width="9.97" height="9.96"/>
  <rect class="cls-1" x="120.17" y="252.66" width="9.96" height="39.86"/>
  <rect class="cls-1" x="204.77" y="159.2" width="9.97" height="9.96"/>
  <rect class="cls-1" x="69.14" y="252.66" width="31.1" height="9.97"/>
  <rect class="cls-1" x="130.13" y="252.66" width="74.86" height="9.97"/>
  <rect class="cls-1" x="49.21" y="169.16" width="9.96" height="73.54"/>
  <rect class="cls-1" x="194.13" y="242.7" width="20.82" height="9.96"/>
  <rect class="cls-1" x="214.95" y="169.16" width="9.96" height="73.54"/>
  <g>
    <rect x="153.97" y="430.9" width="9.96" height="9.96"/>
    <rect x="153.97" y="327.39" width="9.96" height="9.96"/>
    <rect x="195.03" y="307.47" width="9.96" height="9.96"/>
    <rect x="205" y="297.5" width="9.96" height="9.96"/>
    <rect x="214.96" y="287.54" width="9.96" height="39.85"/>
    <rect x="410.65" y="430.9" width="9.96" height="9.96"/>
    <rect x="163.93" y="440.87" width="246.72" height="9.96"/>
    <rect x="163.93" y="317.43" width="31.1" height="9.96"/>
    <rect x="224.92" y="317.43" width="185.94" height="9.96"/>
    <rect x="144" y="337.36" width="9.96" height="93.55"/>
    <rect x="410.86" y="327.39" width="9.96" height="9.96"/>
    <rect x="420.83" y="337.36" width="9.96" height="93.55"/>
  </g>
  <g>
    <rect x="410.75" y="39.13" width="9.96" height="9.96"/>
    <rect x="285.22" y="156.79" width="113.7" height="9.96"/>
    <rect x="285.22" y="186.81" width="113.7" height="9.96"/>
    <rect x="285.22" y="126.77" width="113.7" height="9.96"/>
    <rect x="285.22" y="96.76" width="113.7" height="9.96"/>
    <rect x="410.75" y="242.7" width="9.96" height="9.96"/>
    <rect x="369.69" y="262.63" width="9.96" height="9.96"/>
    <rect x="359.72" y="272.59" width="9.96" height="9.96"/>
    <rect x="349.76" y="252.67" width="9.96" height="39.85"/>
    <rect x="265.16" y="39.13" width="9.96" height="9.96"/>
    <rect x="275.12" y="29.17" width="135.63" height="9.96"/>
    <rect x="379.65" y="252.67" width="31.1" height="9.96"/>
    <rect x="274.9" y="252.67" width="74.86" height="9.96"/>
    <rect x="420.72" y="49.1" width="9.96" height="193.61"/>
    <rect x="264.94" y="242.7" width="9.96" height="9.96"/>
    <rect x="254.98" y="49.1" width="9.96" height="193.61"/>
  </g>
  <g>
    <rect x="200.38" y="379.2" width="9.96" height="9.96"/>
    <rect x="210.35" y="389.16" width="9.96" height="9.96"/>
    <rect x="220.31" y="389.16" width="9.96" height="9.96"/>
    <rect x="230.28" y="399" width="9.96" height="9.96"/>
    <rect x="240.24" y="399" width="9.96" height="9.96"/>
    <rect x="250.2" y="399" width="9.96" height="9.96"/>
    <rect x="260.17" y="399" width="9.96" height="9.96"/>
    <rect x="270.05" y="389.11" width="9.96" height="9.96"/>
    <rect x="280.02" y="389.11" width="9.96" height="9.96"/>
    <rect x="289.98" y="379.2" width="9.96" height="9.96"/>
    <rect x="299.94" y="389.11" width="9.96" height="9.96"/>
    <rect x="309.91" y="399.02" width="9.96" height="9.96"/>
    <rect x="319.87" y="408.99" width="9.96" height="9.96"/>
    <rect x="329.83" y="408.99" width="9.96" height="9.96"/>
    <rect x="339.8" y="408.99" width="9.96" height="9.96"/>
    <rect x="349.76" y="399.08" width="9.96" height="9.96"/>
    <rect x="299.94" y="369.24" width="9.96" height="9.96"/>
    <rect x="309.91" y="359.27" width="9.96" height="9.96"/>
    <rect x="299.94" y="349.31" width="9.96" height="9.96"/>
    <rect x="289.98" y="349.31" width="9.96" height="9.96"/>
    <rect x="280.02" y="359.27" width="9.96" height="9.96"/>
    <rect x="280.02" y="369.24" width="9.96" height="9.96"/>
  </g>
  <rect class="cls-1" x="59.17" y="169.16" width="13.63" height="75.02"/>
  <rect class="cls-1" x="201.82" y="166.76" width="13.14" height="77.43"/>
</svg>