<?xml version="1.0" encoding="UTF-8"?>
<svg id="Design" xmlns="http://www.w3.org/2000/svg" viewBox="0 0 140.45 207.44">
  <defs>
    <style>
      .cls-1 {
        fill: #ffd400;
      }

      .cls-2 {
        fill: #fff;
      }
    </style>
  </defs>
  <rect class="cls-2" x="56.11" y="176.28" width="30.98" height="10.36"/>
  <rect class="cls-2" x="46.23" y="156.27" width="50.99" height="12.12"/>
  <rect x="37.71" y="157.45" width="9.73" height="9.73"/>
  <rect x="96.09" y="157.45" width="9.73" height="9.73"/>
  <rect x="86.36" y="176.91" width="9.73" height="9.73"/>
  <rect x="47.44" y="176.91" width="9.73" height="9.73"/>
  <rect x="37.71" y="147.72" width="68.11" height="9.73"/>
  <rect x="37.71" y="167.18" width="68.11" height="9.73"/>
  <polygon class="cls-1" points="125.29 50.43 125.29 40.68 115.56 40.68 115.56 30.95 105.83 30.95 105.83 21.22 96.09 21.22 96.09 11.49 47.44 11.49 47.44 21.22 37.71 21.22 37.71 30.95 27.98 30.95 27.98 40.68 18.25 40.68 18.29 50.42 8.52 50.42 8.52 108.8 18.25 108.8 18.25 108.7 18.26 108.8 18.25 108.8 18.25 118.52 27.98 118.52 27.98 128.26 37.71 128.26 37.71 128.22 37.72 128.26 37.71 128.26 37.71 147.72 105.83 147.72 105.83 138 105.83 137.99 105.83 128.27 115.56 128.27 115.56 118.53 115.5 118.52 125.29 118.52 125.29 108.81 135.02 108.81 135.02 50.43 125.29 50.43"/>
  <rect x="66.9" y="186.64" width="9.73" height="9.73"/>
  <rect x="76.63" y="186.64" width="9.73" height="9.73"/>
  <rect x="57.17" y="186.64" width="9.73" height="9.73"/>
  <rect x="57.17" y="108.8" width="9.73" height="9.73"/>
  <rect x="76.63" y="108.8" width="9.73" height="9.73"/>
  <rect x="57.17" y="118.53" width="9.73" height="9.73"/>
  <rect x="57.17" y="128.26" width="9.73" height="9.73"/>
  <rect x="57.17" y="137.99" width="9.73" height="9.73"/>
  <rect x="76.63" y="118.53" width="9.73" height="9.73"/>
  <rect x="76.63" y="128.26" width="9.73" height="9.73"/>
  <rect x="76.63" y="137.99" width="9.73" height="9.73"/>
  <rect x="47.44" y="99.07" width="9.73" height="9.73"/>
  <rect x="37.71" y="89.34" width="9.73" height="9.73"/>
  <rect x="86.36" y="99.07" width="9.73" height="9.73"/>
  <rect x="96.09" y="89.34" width="9.73" height="9.73"/>
  <rect x="37.71" y="79.61" width="9.73" height="9.73"/>
  <rect x="57.17" y="79.61" width="9.73" height="9.73"/>
  <rect x="76.63" y="79.61" width="9.73" height="9.73"/>
  <rect x="47.44" y="69.88" width="9.73" height="9.73"/>
  <rect x="66.9" y="69.88" width="9.73" height="9.73"/>
  <rect x="86.36" y="69.88" width="9.73" height="9.73"/>
  <rect x="96.09" y="79.61" width="9.73" height="9.73"/>
</svg>