<?xml version="1.0" encoding="UTF-8"?>
<svg id="Design" xmlns="http://www.w3.org/2000/svg" viewBox="0 0 480 480">
  <defs>
    <style>
      .cls-1 {
        fill: #85a5ff;
      }
    </style>
  </defs>
  <g>
    <path class="cls-1" d="M285.39,205.78v-7.86h-7.87v-7.87h7.87v-7.86h7.86v-7.87h-7.86v-7.86h-7.87v7.86h-7.86v7.87h-7.87v-7.87h-7.86v-15.73h-15.73v15.73h-7.86v7.87h-7.87v-7.87h-7.86v-7.86h-7.87v7.86h-7.86v7.87h7.86v7.86h7.87v7.87h-7.87v7.86h-15.73v15.73h15.73v7.87h7.87v7.86h-7.87v7.87h-7.86v7.86h7.86v7.87h7.87v-7.87h7.86v-7.86h7.87v7.86h7.86v15.73h15.73v-15.73h7.86v-7.86h7.87v7.86h7.86v7.87h7.87v-7.87h7.86v-7.86h-7.86v-7.87h-7.87v-7.86h7.87v-7.87h15.73v-15.73h-15.73ZM269.66,221.51h-7.87v7.87h-7.86v7.86h-15.73v-7.86h-7.86v-7.87h-7.87v-15.73h7.87v-7.86h7.86v-7.87h15.73v7.87h7.86v7.86h7.87v15.73Z"/>
    <g>
      <rect class="cls-1" x="238.2" y="150.73" width="7.87" height="7.86"/>
      <rect class="cls-1" x="246.07" y="150.73" width="7.86" height="7.86"/>
      <rect class="cls-1" x="230.34" y="166.46" width="7.86" height="7.86"/>
      <rect class="cls-1" x="230.34" y="158.59" width="7.86" height="7.87"/>
      <rect class="cls-1" x="253.93" y="166.46" width="7.86" height="7.86"/>
      <g>
        <rect class="cls-1" x="261.79" y="174.32" width="7.87" height="7.87"/>
        <rect class="cls-1" x="269.66" y="166.46" width="7.86" height="7.86"/>
        <rect class="cls-1" x="277.52" y="190.05" width="7.87" height="7.87"/>
        <rect class="cls-1" x="285.39" y="182.19" width="7.86" height="7.86"/>
        <rect class="cls-1" x="277.52" y="158.59" width="7.87" height="7.87"/>
        <rect class="cls-1" x="285.39" y="166.46" width="7.86" height="7.86"/>
        <rect class="cls-1" x="293.25" y="174.32" width="7.87" height="7.87"/>
      </g>
      <g>
        <rect class="cls-1" x="222.47" y="174.32" width="7.87" height="7.87"/>
        <rect class="cls-1" x="214.61" y="166.46" width="7.86" height="7.86"/>
        <rect class="cls-1" x="206.74" y="190.05" width="7.87" height="7.87"/>
        <rect class="cls-1" x="198.88" y="182.19" width="7.86" height="7.86"/>
        <rect class="cls-1" x="206.74" y="158.59" width="7.87" height="7.87"/>
        <rect class="cls-1" x="198.88" y="166.46" width="7.86" height="7.86"/>
        <rect class="cls-1" x="191.01" y="174.32" width="7.87" height="7.87"/>
      </g>
      <rect class="cls-1" x="253.93" y="158.59" width="7.86" height="7.87"/>
      <rect class="cls-1" x="285.39" y="197.92" width="7.86" height="7.86"/>
      <rect class="cls-1" x="293.25" y="197.92" width="7.87" height="7.86"/>
      <rect class="cls-1" x="301.12" y="205.78" width="7.86" height="7.87"/>
      <rect class="cls-1" x="198.88" y="197.92" width="7.86" height="7.86"/>
      <rect class="cls-1" x="191.01" y="197.92" width="7.87" height="7.86"/>
      <rect class="cls-1" x="183.15" y="205.78" width="7.86" height="7.87"/>
      <g>
        <rect class="cls-1" x="238.2" y="268.7" width="7.87" height="7.87"/>
        <rect class="cls-1" x="246.07" y="268.7" width="7.86" height="7.87"/>
        <rect class="cls-1" x="230.34" y="252.97" width="7.86" height="7.87"/>
        <rect class="cls-1" x="230.34" y="260.84" width="7.86" height="7.86"/>
        <rect class="cls-1" x="253.93" y="252.97" width="7.86" height="7.87"/>
        <g>
          <rect class="cls-1" x="261.79" y="245.11" width="7.87" height="7.86"/>
          <rect class="cls-1" x="269.66" y="252.97" width="7.86" height="7.87"/>
          <rect class="cls-1" x="277.52" y="229.38" width="7.87" height="7.86"/>
          <rect class="cls-1" x="285.39" y="237.24" width="7.86" height="7.87"/>
          <rect class="cls-1" x="277.52" y="260.84" width="7.87" height="7.86"/>
          <rect class="cls-1" x="285.39" y="252.97" width="7.86" height="7.87"/>
          <rect class="cls-1" x="293.25" y="245.11" width="7.87" height="7.86"/>
        </g>
        <g>
          <rect class="cls-1" x="222.47" y="245.11" width="7.87" height="7.86"/>
          <rect class="cls-1" x="214.61" y="252.97" width="7.86" height="7.87"/>
          <rect class="cls-1" x="206.74" y="229.38" width="7.87" height="7.86"/>
          <rect class="cls-1" x="198.88" y="237.24" width="7.86" height="7.87"/>
          <rect class="cls-1" x="206.74" y="260.84" width="7.87" height="7.86"/>
          <rect class="cls-1" x="198.88" y="252.97" width="7.86" height="7.87"/>
          <rect class="cls-1" x="191.01" y="245.11" width="7.87" height="7.86"/>
        </g>
        <rect class="cls-1" x="253.93" y="260.84" width="7.86" height="7.86"/>
        <rect class="cls-1" x="285.39" y="221.51" width="7.86" height="7.87"/>
        <rect class="cls-1" x="293.25" y="221.51" width="7.87" height="7.87"/>
        <rect class="cls-1" x="301.12" y="213.65" width="7.86" height="7.86"/>
        <rect class="cls-1" x="198.88" y="221.51" width="7.86" height="7.87"/>
        <rect class="cls-1" x="191.01" y="221.51" width="7.87" height="7.87"/>
        <rect class="cls-1" x="183.15" y="213.65" width="7.86" height="7.86"/>
      </g>
    </g>
  </g>
  <g>
    <rect x="118.76" y="72.01" width="242.48" height="9.96"/>
    <rect x="118.76" y="345.33" width="242.48" height="9.96"/>
    <rect x="118.76" y="398.02" width="242.48" height="9.96"/>
    <rect x="135.74" y="371.2" width="225.28" height="9.96"/>
    <rect x="108.79" y="81.98" width="9.96" height="316.04"/>
    <rect x="128.72" y="81.98" width="9.96" height="263.35"/>
    <rect x="128.72" y="355.29" width="9.96" height="42.73"/>
    <rect x="361.24" y="81.98" width="9.96" height="273.31"/>
    <rect x="351.07" y="355.29" width="9.96" height="15.9"/>
    <rect x="361.03" y="375.22" width="9.96" height="32.77"/>
  </g>
</svg>