<?xml version="1.0" encoding="UTF-8"?>
<svg id="Design" xmlns="http://www.w3.org/2000/svg" viewBox="0 0 480 480">
  <g>
    <g>
      <g>
        <rect x="242.2" y="190.06" width="7.86" height="7.86"/>
        <rect x="250.07" y="190.06" width="7.86" height="7.86"/>
        <rect x="257.93" y="197.92" width="7.86" height="7.86"/>
        <rect x="234.34" y="197.92" width="7.86" height="7.86"/>
        <rect x="226.47" y="205.79" width="7.86" height="7.86"/>
        <rect x="265.8" y="205.79" width="7.86" height="7.86"/>
      </g>
      <g>
        <rect x="242.2" y="229.38" width="7.86" height="7.86"/>
        <rect x="250.07" y="229.38" width="7.86" height="7.86"/>
        <rect x="257.93" y="221.52" width="7.86" height="7.86"/>
        <rect x="234.34" y="221.52" width="7.86" height="7.86"/>
        <rect x="226.47" y="213.65" width="7.86" height="7.86"/>
        <rect x="265.8" y="213.65" width="7.86" height="7.86"/>
      </g>
    </g>
    <g>
      <rect x="242.2" y="150.73" width="7.86" height="7.86"/>
      <rect x="250.07" y="150.73" width="7.86" height="7.86"/>
      <rect x="234.34" y="166.46" width="7.86" height="7.86"/>
      <rect x="234.34" y="158.6" width="7.86" height="7.86"/>
      <rect x="257.93" y="166.46" width="7.86" height="7.86"/>
      <g>
        <rect x="265.8" y="174.33" width="7.86" height="7.86"/>
        <rect x="273.66" y="166.46" width="7.86" height="7.86"/>
        <rect x="281.53" y="190.06" width="7.86" height="7.86"/>
        <rect x="289.39" y="182.19" width="7.86" height="7.86"/>
        <rect x="281.53" y="158.6" width="7.86" height="7.86"/>
        <rect x="289.39" y="166.46" width="7.86" height="7.86"/>
        <rect x="297.26" y="174.33" width="7.86" height="7.86"/>
      </g>
      <g>
        <rect x="226.47" y="174.33" width="7.86" height="7.86"/>
        <rect x="218.61" y="166.46" width="7.86" height="7.86"/>
        <rect x="210.74" y="190.06" width="7.86" height="7.86"/>
        <rect x="202.88" y="182.19" width="7.86" height="7.86"/>
        <rect x="210.74" y="158.6" width="7.86" height="7.86"/>
        <rect x="202.88" y="166.46" width="7.86" height="7.86"/>
        <rect x="195.01" y="174.33" width="7.86" height="7.86"/>
      </g>
      <rect x="257.93" y="158.6" width="7.86" height="7.86"/>
      <rect x="289.39" y="197.92" width="7.86" height="7.86"/>
      <rect x="297.26" y="197.92" width="7.86" height="7.86"/>
      <rect x="305.12" y="205.79" width="7.86" height="7.86"/>
      <rect x="202.88" y="197.92" width="7.86" height="7.86"/>
      <rect x="195.01" y="197.92" width="7.86" height="7.86"/>
      <rect x="187.15" y="205.79" width="7.86" height="7.86"/>
      <g>
        <rect x="242.2" y="268.71" width="7.86" height="7.86"/>
        <rect x="250.07" y="268.71" width="7.86" height="7.86"/>
        <rect x="234.34" y="252.98" width="7.86" height="7.86"/>
        <rect x="234.34" y="260.84" width="7.86" height="7.86"/>
        <rect x="257.93" y="252.98" width="7.86" height="7.86"/>
        <g>
          <rect x="265.8" y="245.11" width="7.86" height="7.86"/>
          <rect x="273.66" y="252.98" width="7.86" height="7.86"/>
          <rect x="281.53" y="229.38" width="7.86" height="7.86"/>
          <rect x="289.39" y="237.25" width="7.86" height="7.86"/>
          <rect x="281.53" y="260.84" width="7.86" height="7.86"/>
          <rect x="289.39" y="252.98" width="7.86" height="7.86"/>
          <rect x="297.26" y="245.11" width="7.86" height="7.86"/>
        </g>
        <g>
          <rect x="226.47" y="245.11" width="7.86" height="7.86"/>
          <rect x="218.61" y="252.98" width="7.86" height="7.86"/>
          <rect x="210.74" y="229.38" width="7.86" height="7.86"/>
          <rect x="202.88" y="237.25" width="7.86" height="7.86"/>
          <rect x="210.74" y="260.84" width="7.86" height="7.86"/>
          <rect x="202.88" y="252.98" width="7.86" height="7.86"/>
          <rect x="195.01" y="245.11" width="7.86" height="7.86"/>
        </g>
        <rect x="257.93" y="260.84" width="7.86" height="7.86"/>
        <rect x="289.39" y="221.52" width="7.86" height="7.86"/>
        <rect x="297.26" y="221.52" width="7.86" height="7.86"/>
        <rect x="305.12" y="213.65" width="7.86" height="7.86"/>
        <rect x="202.88" y="221.52" width="7.86" height="7.86"/>
        <rect x="195.01" y="221.52" width="7.86" height="7.86"/>
        <rect x="187.15" y="213.65" width="7.86" height="7.86"/>
      </g>
    </g>
  </g>
  <g>
    <rect x="118.76" y="72.01" width="242.48" height="9.96"/>
    <rect x="118.76" y="345.33" width="242.48" height="9.96"/>
    <rect x="118.76" y="398.02" width="242.48" height="9.96"/>
    <rect x="135.74" y="371.2" width="225.28" height="9.96"/>
    <rect x="108.79" y="81.98" width="9.96" height="316.04"/>
    <rect x="128.72" y="81.98" width="9.96" height="263.35"/>
    <rect x="128.72" y="355.29" width="9.96" height="42.73"/>
    <rect x="361.24" y="81.98" width="9.96" height="273.31"/>
    <rect x="351.07" y="355.29" width="9.96" height="15.9"/>
    <rect x="361.03" y="375.22" width="9.96" height="32.77"/>
  </g>
</svg>