<?xml version="1.0" encoding="UTF-8"?>
<svg id="Design" xmlns="http://www.w3.org/2000/svg" viewBox="0 0 547.58 480">
  <g>
    <rect x="101.27" y="386.8" width="9.73" height="9.73"/>
    <rect x="111" y="377.07" width="9.73" height="9.73"/>
    <rect x="81.81" y="396.53" width="9.73" height="9.73"/>
    <rect x="72.08" y="406.26" width="9.73" height="9.73"/>
    <rect x="62.35" y="406.26" width="9.73" height="9.73"/>
    <rect x="52.62" y="415.99" width="9.73" height="9.73"/>
    <rect x="42.89" y="425.72" width="9.73" height="9.73"/>
    <rect x="42.89" y="435.45" width="204.34" height="9.73"/>
    <rect x="91.54" y="386.8" width="9.73" height="9.73"/>
    <rect x="188.85" y="386.8" width="9.73" height="9.73"/>
    <rect x="179.12" y="377.07" width="9.73" height="9.73"/>
    <rect x="208.31" y="396.53" width="9.73" height="9.73"/>
    <rect x="218.04" y="406.26" width="9.73" height="9.73"/>
    <rect x="227.77" y="406.26" width="9.73" height="9.73"/>
    <rect x="237.5" y="415.99" width="9.73" height="9.73"/>
    <rect x="247.23" y="425.72" width="9.73" height="9.73"/>
    <rect x="247.23" y="435.45" width="9.73" height="9.73"/>
    <rect x="198.58" y="386.8" width="9.73" height="9.73"/>
    <rect x="101.27" y="279.76" width="9.73" height="9.73"/>
    <rect x="111" y="270.03" width="9.73" height="9.73"/>
    <rect x="188.85" y="279.76" width="9.73" height="9.73"/>
    <rect x="179.12" y="270.03" width="9.73" height="9.73"/>
    <rect x="120.73" y="260.3" width="58.38" height="9.73"/>
    <rect x="101.27" y="347.88" width="9.73" height="9.73"/>
    <rect x="111" y="357.61" width="9.73" height="9.73"/>
    <rect x="91.54" y="289.49" width="9.73" height="58.38"/>
    <rect x="120.73" y="367.34" width="9.73" height="9.73"/>
    <rect x="130.46" y="367.34" width="9.73" height="9.73"/>
    <rect x="140.19" y="367.34" width="9.73" height="9.73"/>
    <rect x="188.85" y="347.88" width="9.73" height="9.73"/>
    <rect x="179.12" y="357.61" width="9.73" height="9.73"/>
    <polygon points="198.58 289.49 198.58 299.22 198.58 308.96 198.58 318.69 198.58 328.42 198.58 338.15 198.58 347.88 208.31 347.88 208.31 338.15 208.31 328.42 208.31 318.69 208.31 308.96 208.31 299.22 208.31 289.49 198.58 289.49"/>
    <rect x="169.39" y="367.34" width="9.73" height="9.73"/>
    <rect x="159.65" y="367.34" width="9.73" height="9.73"/>
    <rect x="149.92" y="367.34" width="9.73" height="9.73"/>
  </g>
  <g>
    <rect x="344.6" y="386.8" width="9.73" height="9.73"/>
    <rect x="354.33" y="377.07" width="9.73" height="9.73"/>
    <rect x="325.14" y="396.53" width="9.73" height="9.73"/>
    <rect x="315.41" y="406.26" width="9.73" height="9.73"/>
    <rect x="305.68" y="406.26" width="9.73" height="9.73"/>
    <rect x="295.95" y="415.99" width="9.73" height="9.73"/>
    <rect x="286.22" y="425.72" width="9.73" height="9.73"/>
    <rect x="286.22" y="435.45" width="204.34" height="9.73"/>
    <rect x="334.87" y="386.8" width="9.73" height="9.73"/>
    <rect x="432.18" y="386.8" width="9.73" height="9.73"/>
    <rect x="422.45" y="377.07" width="9.73" height="9.73"/>
    <rect x="451.64" y="396.53" width="9.73" height="9.73"/>
    <rect x="461.37" y="406.26" width="9.73" height="9.73"/>
    <rect x="471.1" y="406.26" width="9.73" height="9.73"/>
    <rect x="480.83" y="415.99" width="9.73" height="9.73"/>
    <rect x="490.56" y="425.72" width="9.73" height="9.73"/>
    <rect x="490.56" y="435.45" width="9.73" height="9.73"/>
    <rect x="441.91" y="386.8" width="9.73" height="9.73"/>
    <rect x="344.6" y="279.76" width="9.73" height="9.73"/>
    <rect x="354.33" y="270.03" width="9.73" height="9.73"/>
    <rect x="432.18" y="279.76" width="9.73" height="9.73"/>
    <rect x="422.45" y="270.03" width="9.73" height="9.73"/>
    <rect x="364.06" y="260.3" width="58.38" height="9.73"/>
    <rect x="344.6" y="347.88" width="9.73" height="9.73"/>
    <rect x="354.33" y="357.61" width="9.73" height="9.73"/>
    <rect x="334.87" y="289.49" width="9.73" height="58.38"/>
    <rect x="364.06" y="367.34" width="9.73" height="9.73"/>
    <rect x="373.79" y="367.34" width="9.73" height="9.73"/>
    <rect x="383.52" y="367.34" width="9.73" height="9.73"/>
    <rect x="432.18" y="347.88" width="9.73" height="9.73"/>
    <rect x="422.45" y="357.61" width="9.73" height="9.73"/>
    <polygon points="441.91 289.49 441.91 299.22 441.91 308.96 441.91 318.69 441.91 328.42 441.91 338.15 441.91 347.88 451.64 347.88 451.64 338.15 451.64 328.42 451.64 318.69 451.64 308.96 451.64 299.22 451.64 289.49 441.91 289.49"/>
    <rect x="412.72" y="367.34" width="9.73" height="9.73"/>
    <rect x="402.99" y="367.34" width="9.73" height="9.73"/>
    <rect x="393.25" y="367.34" width="9.73" height="9.73"/>
  </g>
  <g>
    <rect x="220.88" y="166.62" width="105.61" height="9.96"/>
    <rect x="200.95" y="186.54" width="9.96" height="53.53"/>
    <rect x="210.91" y="176.58" width="9.97" height="9.96"/>
    <rect x="210.91" y="240.07" width="9.97" height="9.96"/>
    <rect x="220.88" y="250.03" width="31.1" height="9.97"/>
    <rect x="251.98" y="260" width="9.96" height="9.96"/>
    <polygon points="326.71 250.03 326.71 260 281.87 260 281.87 289.89 271.91 289.89 271.91 279.92 261.94 279.92 261.94 269.96 271.91 269.96 271.91 250.03 326.71 250.03"/>
    <rect x="326.49" y="176.58" width="9.97" height="9.96"/>
    <rect x="326.71" y="240.07" width="9.96" height="9.96"/>
    <rect x="336.67" y="186.54" width="9.96" height="53.53"/>
    <g>
      <rect x="248.79" y="224.12" width="9.97" height="9.97"/>
      <rect x="268.81" y="224.12" width="9.96" height="9.97"/>
      <rect x="288.82" y="224.12" width="9.96" height="9.97"/>
    </g>
  </g>
  <g>
    <g>
      <g>
        <rect x="112.87" y="97.44" width="7.86" height="7.86"/>
        <rect x="120.73" y="97.44" width="7.86" height="7.86"/>
        <rect x="128.6" y="105.31" width="7.86" height="7.86"/>
        <rect x="105" y="105.31" width="7.86" height="7.86"/>
        <rect x="97.14" y="113.17" width="7.86" height="7.86"/>
        <rect x="136.46" y="113.17" width="7.86" height="7.86"/>
      </g>
      <g>
        <rect x="112.87" y="136.77" width="7.86" height="7.86"/>
        <rect x="120.73" y="136.77" width="7.86" height="7.86"/>
        <rect x="128.6" y="128.9" width="7.86" height="7.86"/>
        <rect x="105" y="128.9" width="7.86" height="7.86"/>
        <rect x="97.14" y="121.04" width="7.86" height="7.86"/>
        <rect x="136.46" y="121.04" width="7.86" height="7.86"/>
      </g>
    </g>
    <g>
      <rect x="112.87" y="58.12" width="7.86" height="7.86"/>
      <rect x="120.73" y="58.12" width="7.86" height="7.86"/>
      <rect x="105" y="73.85" width="7.86" height="7.86"/>
      <rect x="105" y="65.98" width="7.86" height="7.86"/>
      <rect x="128.6" y="73.85" width="7.86" height="7.86"/>
      <g>
        <rect x="136.46" y="81.71" width="7.86" height="7.86"/>
        <rect x="144.33" y="73.85" width="7.86" height="7.86"/>
        <rect x="152.19" y="97.44" width="7.86" height="7.86"/>
        <rect x="160.06" y="89.58" width="7.86" height="7.86"/>
        <rect x="152.19" y="65.98" width="7.86" height="7.86"/>
        <rect x="160.06" y="73.85" width="7.86" height="7.86"/>
        <rect x="167.92" y="81.71" width="7.86" height="7.86"/>
      </g>
      <g>
        <rect x="97.14" y="81.71" width="7.86" height="7.86"/>
        <rect x="89.27" y="73.85" width="7.86" height="7.86"/>
        <rect x="81.41" y="97.44" width="7.86" height="7.86"/>
        <rect x="73.54" y="89.58" width="7.86" height="7.86"/>
        <rect x="81.41" y="65.98" width="7.86" height="7.86"/>
        <rect x="73.54" y="73.85" width="7.86" height="7.86"/>
        <rect x="65.68" y="81.71" width="7.86" height="7.86"/>
      </g>
      <rect x="128.6" y="65.98" width="7.86" height="7.86"/>
      <rect x="160.06" y="105.31" width="7.86" height="7.86"/>
      <rect x="167.92" y="105.31" width="7.86" height="7.86"/>
      <rect x="175.79" y="113.17" width="7.86" height="7.86"/>
      <rect x="73.54" y="105.31" width="7.86" height="7.86"/>
      <rect x="65.68" y="105.31" width="7.86" height="7.86"/>
      <rect x="57.81" y="113.17" width="7.86" height="7.86"/>
      <g>
        <rect x="112.87" y="176.09" width="7.86" height="7.86"/>
        <rect x="120.73" y="176.09" width="7.86" height="7.86"/>
        <rect x="105" y="160.36" width="7.86" height="7.86"/>
        <rect x="105" y="168.23" width="7.86" height="7.86"/>
        <rect x="128.6" y="160.36" width="7.86" height="7.86"/>
        <g>
          <rect x="136.46" y="152.5" width="7.86" height="7.86"/>
          <rect x="144.33" y="160.36" width="7.86" height="7.86"/>
          <rect x="152.19" y="136.77" width="7.86" height="7.86"/>
          <rect x="160.06" y="144.63" width="7.86" height="7.86"/>
          <rect x="152.19" y="168.23" width="7.86" height="7.86"/>
          <rect x="160.06" y="160.36" width="7.86" height="7.86"/>
          <rect x="167.92" y="152.5" width="7.86" height="7.86"/>
        </g>
        <g>
          <rect x="97.14" y="152.5" width="7.86" height="7.86"/>
          <rect x="89.27" y="160.36" width="7.86" height="7.86"/>
          <rect x="81.41" y="136.77" width="7.86" height="7.86"/>
          <rect x="73.54" y="144.63" width="7.86" height="7.86"/>
          <rect x="81.41" y="168.23" width="7.86" height="7.86"/>
          <rect x="73.54" y="160.36" width="7.86" height="7.86"/>
          <rect x="65.68" y="152.5" width="7.86" height="7.86"/>
        </g>
        <rect x="128.6" y="168.23" width="7.86" height="7.86"/>
        <rect x="160.06" y="128.9" width="7.86" height="7.86"/>
        <rect x="167.92" y="128.9" width="7.86" height="7.86"/>
        <rect x="175.79" y="121.04" width="7.86" height="7.86"/>
        <rect x="73.54" y="128.9" width="7.86" height="7.86"/>
        <rect x="65.68" y="128.9" width="7.86" height="7.86"/>
        <rect x="57.81" y="121.04" width="7.86" height="7.86"/>
      </g>
    </g>
  </g>
  <g>
    <g>
      <rect x="417.41" y="26.39" width="9.96" height="9.96"/>
      <rect x="407.44" y="26.39" width="9.96" height="9.96"/>
      <rect x="397.48" y="26.39" width="9.96" height="9.96"/>
      <rect x="387.51" y="36.35" width="9.96" height="9.96"/>
      <rect x="377.55" y="46.32" width="9.96" height="9.96"/>
      <rect x="367.59" y="56.28" width="9.96" height="9.96"/>
      <rect x="367.59" y="126.03" width="9.96" height="9.96"/>
      <rect x="377.55" y="135.99" width="9.96" height="9.96"/>
      <rect x="387.51" y="145.95" width="9.96" height="9.96"/>
      <rect x="387.51" y="155.92" width="9.96" height="9.96"/>
      <rect x="387.51" y="175.85" width="9.96" height="9.96"/>
      <rect x="447.3" y="175.85" width="9.96" height="9.96"/>
      <rect x="437.33" y="195.77" width="9.96" height="9.96"/>
      <rect x="397.48" y="195.77" width="9.96" height="9.96"/>
      <rect x="387.51" y="165.88" width="69.75" height="9.96"/>
      <rect x="387.51" y="185.81" width="69.75" height="9.96"/>
      <rect x="467.22" y="126.03" width="9.96" height="9.96"/>
      <rect x="457.26" y="135.99" width="9.96" height="9.96"/>
      <rect x="447.3" y="145.95" width="9.96" height="9.96"/>
      <rect x="447.3" y="155.92" width="9.96" height="9.96"/>
      <rect x="357.62" y="66.25" width="9.96" height="9.96"/>
      <rect x="357.62" y="76.21" width="9.96" height="9.96"/>
      <rect x="357.62" y="86.17" width="9.96" height="9.96"/>
      <rect x="357.62" y="96.14" width="9.96" height="9.96"/>
      <rect x="357.62" y="106.1" width="9.96" height="9.96"/>
      <rect x="357.62" y="116.06" width="9.96" height="9.96"/>
      <rect x="447.3" y="36.35" width="9.96" height="9.96"/>
      <rect x="457.26" y="46.32" width="9.96" height="9.96"/>
      <rect x="467.22" y="56.28" width="9.96" height="9.96"/>
      <rect x="477.19" y="66.25" width="9.96" height="9.96"/>
      <rect x="477.19" y="76.21" width="9.96" height="9.96"/>
      <rect x="477.19" y="86.17" width="9.96" height="9.96"/>
      <rect x="477.19" y="96.14" width="9.96" height="9.96"/>
      <rect x="477.19" y="106.1" width="9.96" height="9.96"/>
      <rect x="477.19" y="116.06" width="9.96" height="9.96"/>
      <rect x="437.33" y="26.39" width="9.96" height="9.96"/>
      <rect x="427.37" y="26.39" width="9.96" height="9.96"/>
      <rect x="417.41" y="205.74" width="9.96" height="9.96"/>
      <rect x="427.37" y="205.74" width="9.96" height="9.96"/>
      <rect x="407.44" y="205.74" width="9.96" height="9.96"/>
    </g>
    <g>
      <rect x="407.79" y="126.96" width="9.73" height="9.73"/>
      <rect x="427.25" y="126.96" width="9.73" height="9.73"/>
      <rect x="407.79" y="136.69" width="9.73" height="9.73"/>
      <rect x="407.79" y="146.42" width="9.73" height="9.73"/>
      <rect x="407.79" y="156.15" width="9.73" height="9.73"/>
      <rect x="427.25" y="136.69" width="9.73" height="9.73"/>
      <rect x="427.25" y="146.42" width="9.73" height="9.73"/>
      <rect x="427.25" y="156.15" width="9.73" height="9.73"/>
      <rect x="398.06" y="117.23" width="9.73" height="9.73"/>
      <rect x="388.33" y="107.5" width="9.73" height="9.73"/>
      <rect x="436.98" y="117.23" width="9.73" height="9.73"/>
      <rect x="446.71" y="107.5" width="9.73" height="9.73"/>
      <rect x="388.33" y="97.77" width="9.73" height="9.73"/>
      <rect x="407.79" y="97.77" width="9.73" height="9.73"/>
      <rect x="427.25" y="97.77" width="9.73" height="9.73"/>
      <rect x="398.06" y="88.04" width="9.73" height="9.73"/>
      <rect x="417.52" y="88.04" width="9.73" height="9.73"/>
      <rect x="436.98" y="88.04" width="9.73" height="9.73"/>
      <rect x="446.71" y="97.77" width="9.73" height="9.73"/>
    </g>
  </g>
</svg>