<?xml version="1.0" encoding="UTF-8"?>
<svg id="Design" xmlns="http://www.w3.org/2000/svg" viewBox="0 0 547.58 480">
  <defs>
    <style>
      .cls-1 {
        fill: #85a5ff;
      }

      .cls-2 {
        fill: #fff;
      }
    </style>
  </defs>
  <g>
    <rect x="388.76" y="174.56" width="9.73" height="9.73"/>
    <rect x="447.14" y="174.56" width="9.73" height="9.73"/>
    <rect x="437.41" y="194.02" width="9.73" height="9.73"/>
    <rect x="398.49" y="194.02" width="9.73" height="9.73"/>
    <rect x="388.76" y="164.83" width="68.11" height="9.73"/>
    <rect x="388.76" y="184.29" width="68.11" height="9.73"/>
    <polygon class="cls-1" points="476.34 67.54 476.34 57.79 466.61 57.79 466.61 48.06 456.88 48.06 456.88 38.33 447.14 38.33 447.14 28.6 398.49 28.6 398.49 38.33 388.76 38.33 388.76 48.06 379.03 48.06 379.03 57.79 369.3 57.79 369.34 67.53 359.57 67.53 359.57 125.91 369.3 125.91 369.3 125.81 369.31 125.91 369.3 125.91 369.3 135.63 379.03 135.63 379.03 145.37 388.76 145.37 388.76 145.33 388.77 145.37 388.76 145.37 388.76 164.83 456.88 164.83 456.88 155.11 456.88 155.1 456.88 145.38 466.61 145.38 466.61 135.64 466.55 135.63 476.34 135.63 476.34 125.92 486.07 125.92 486.07 67.54 476.34 67.54"/>
    <rect x="417.95" y="203.75" width="9.73" height="9.73"/>
    <rect x="427.68" y="203.75" width="9.73" height="9.73"/>
    <rect x="408.22" y="203.75" width="9.73" height="9.73"/>
    <rect x="408.22" y="125.91" width="9.73" height="9.73"/>
    <rect x="427.68" y="125.91" width="9.73" height="9.73"/>
    <rect x="408.22" y="135.64" width="9.73" height="9.73"/>
    <rect x="408.22" y="145.37" width="9.73" height="9.73"/>
    <rect x="408.22" y="155.1" width="9.73" height="9.73"/>
    <rect x="427.68" y="135.64" width="9.73" height="9.73"/>
    <rect x="427.68" y="145.37" width="9.73" height="9.73"/>
    <rect x="427.68" y="155.1" width="9.73" height="9.73"/>
    <rect x="398.49" y="116.18" width="9.73" height="9.73"/>
    <rect x="388.76" y="106.45" width="9.73" height="9.73"/>
    <rect x="437.41" y="116.18" width="9.73" height="9.73"/>
    <rect x="447.14" y="106.45" width="9.73" height="9.73"/>
    <rect x="388.76" y="96.72" width="9.73" height="9.73"/>
    <rect x="408.22" y="96.72" width="9.73" height="9.73"/>
    <rect x="427.68" y="96.72" width="9.73" height="9.73"/>
    <rect x="398.49" y="86.99" width="9.73" height="9.73"/>
    <rect x="417.95" y="86.99" width="9.73" height="9.73"/>
    <rect x="437.41" y="86.99" width="9.73" height="9.73"/>
    <rect x="447.14" y="96.72" width="9.73" height="9.73"/>
  </g>
  <g>
    <polygon class="cls-2" points="198.58 289.49 188.85 289.49 188.85 270.03 179.12 270.03 179.12 260.3 120.73 260.3 120.73 270.03 111 270.03 111 289.49 91.54 289.49 91.54 347.88 111 347.88 111 367.34 120.73 367.34 120.73 386.8 111 386.8 111 396.53 91.54 396.53 91.54 406.26 81.81 406.26 81.81 415.99 62.35 415.99 62.35 425.72 52.62 425.72 52.62 435.45 179.12 435.45 247.23 435.45 247.23 425.72 237.5 425.72 237.5 415.99 218.04 415.99 218.04 406.26 208.31 406.26 208.31 396.53 188.85 396.53 188.85 386.8 179.12 386.8 179.12 367.34 188.85 367.34 188.85 347.88 198.58 347.88 198.58 289.49"/>
    <rect x="101.27" y="386.8" width="9.73" height="9.73"/>
    <rect x="111" y="377.07" width="9.73" height="9.73"/>
    <rect x="81.81" y="396.53" width="9.73" height="9.73"/>
    <rect x="72.08" y="406.26" width="9.73" height="9.73"/>
    <rect x="62.35" y="406.26" width="9.73" height="9.73"/>
    <rect x="52.62" y="415.99" width="9.73" height="9.73"/>
    <rect x="42.89" y="425.72" width="9.73" height="9.73"/>
    <rect x="42.89" y="435.45" width="204.34" height="9.73"/>
    <rect x="91.54" y="386.8" width="9.73" height="9.73"/>
    <rect x="188.85" y="386.8" width="9.73" height="9.73"/>
    <rect x="179.12" y="377.07" width="9.73" height="9.73"/>
    <rect x="208.31" y="396.53" width="9.73" height="9.73"/>
    <rect x="218.04" y="406.26" width="9.73" height="9.73"/>
    <rect x="227.77" y="406.26" width="9.73" height="9.73"/>
    <rect x="237.5" y="415.99" width="9.73" height="9.73"/>
    <rect x="247.23" y="425.72" width="9.73" height="9.73"/>
    <rect x="247.23" y="435.45" width="9.73" height="9.73"/>
    <rect x="198.58" y="386.8" width="9.73" height="9.73"/>
    <rect x="101.27" y="279.76" width="9.73" height="9.73"/>
    <rect x="111" y="270.03" width="9.73" height="9.73"/>
    <rect x="188.85" y="279.76" width="9.73" height="9.73"/>
    <rect x="179.12" y="270.03" width="9.73" height="9.73"/>
    <rect x="120.73" y="260.3" width="58.38" height="9.73"/>
    <rect x="101.27" y="347.88" width="9.73" height="9.73"/>
    <rect x="111" y="357.61" width="9.73" height="9.73"/>
    <rect x="91.54" y="289.49" width="9.73" height="58.38"/>
    <rect x="120.73" y="367.34" width="9.73" height="9.73"/>
    <rect x="130.46" y="367.34" width="9.73" height="9.73"/>
    <rect x="140.19" y="367.34" width="9.73" height="9.73"/>
    <rect x="188.85" y="347.88" width="9.73" height="9.73"/>
    <rect x="179.12" y="357.61" width="9.73" height="9.73"/>
    <polygon points="198.58 289.49 198.58 299.22 198.58 308.96 198.58 318.69 198.58 328.42 198.58 338.15 198.58 347.88 208.31 347.88 208.31 338.15 208.31 328.42 208.31 318.69 208.31 308.96 208.31 299.22 208.31 289.49 198.58 289.49"/>
    <rect x="169.39" y="367.34" width="9.73" height="9.73"/>
    <rect x="159.65" y="367.34" width="9.73" height="9.73"/>
    <rect x="149.92" y="367.34" width="9.73" height="9.73"/>
  </g>
  <g>
    <polygon class="cls-2" points="441.91 289.49 432.18 289.49 432.18 270.03 422.45 270.03 422.45 260.3 364.06 260.3 364.06 270.03 354.33 270.03 354.33 289.49 334.87 289.49 334.87 347.88 354.33 347.88 354.33 367.34 364.06 367.34 364.06 386.8 354.33 386.8 354.33 396.53 334.87 396.53 334.87 406.26 325.14 406.26 325.14 415.99 305.68 415.99 305.68 425.72 295.95 425.72 295.95 435.45 422.45 435.45 490.56 435.45 490.56 425.72 480.83 425.72 480.83 415.99 461.37 415.99 461.37 406.26 451.64 406.26 451.64 396.53 432.18 396.53 432.18 386.8 422.45 386.8 422.45 367.34 432.18 367.34 432.18 347.88 441.91 347.88 441.91 289.49"/>
    <rect x="344.6" y="386.8" width="9.73" height="9.73"/>
    <rect x="354.33" y="377.07" width="9.73" height="9.73"/>
    <rect x="325.14" y="396.53" width="9.73" height="9.73"/>
    <rect x="315.41" y="406.26" width="9.73" height="9.73"/>
    <rect x="305.68" y="406.26" width="9.73" height="9.73"/>
    <rect x="295.95" y="415.99" width="9.73" height="9.73"/>
    <rect x="286.22" y="425.72" width="9.73" height="9.73"/>
    <rect x="286.22" y="435.45" width="204.34" height="9.73"/>
    <rect x="334.87" y="386.8" width="9.73" height="9.73"/>
    <rect x="432.18" y="386.8" width="9.73" height="9.73"/>
    <rect x="422.45" y="377.07" width="9.73" height="9.73"/>
    <rect x="451.64" y="396.53" width="9.73" height="9.73"/>
    <rect x="461.37" y="406.26" width="9.73" height="9.73"/>
    <rect x="471.1" y="406.26" width="9.73" height="9.73"/>
    <rect x="480.83" y="415.99" width="9.73" height="9.73"/>
    <rect x="490.56" y="425.72" width="9.73" height="9.73"/>
    <rect x="490.56" y="435.45" width="9.73" height="9.73"/>
    <rect x="441.91" y="386.8" width="9.73" height="9.73"/>
    <rect x="344.6" y="279.76" width="9.73" height="9.73"/>
    <rect x="354.33" y="270.03" width="9.73" height="9.73"/>
    <rect x="432.18" y="279.76" width="9.73" height="9.73"/>
    <rect x="422.45" y="270.03" width="9.73" height="9.73"/>
    <rect x="364.06" y="260.3" width="58.38" height="9.73"/>
    <rect x="344.6" y="347.88" width="9.73" height="9.73"/>
    <rect x="354.33" y="357.61" width="9.73" height="9.73"/>
    <rect x="334.87" y="289.49" width="9.73" height="58.38"/>
    <rect x="364.06" y="367.34" width="9.73" height="9.73"/>
    <rect x="373.79" y="367.34" width="9.73" height="9.73"/>
    <rect x="383.52" y="367.34" width="9.73" height="9.73"/>
    <rect x="432.18" y="347.88" width="9.73" height="9.73"/>
    <rect x="422.45" y="357.61" width="9.73" height="9.73"/>
    <polygon points="441.91 289.49 441.91 299.22 441.91 308.96 441.91 318.69 441.91 328.42 441.91 338.15 441.91 347.88 451.64 347.88 451.64 338.15 451.64 328.42 451.64 318.69 451.64 308.96 451.64 299.22 451.64 289.49 441.91 289.49"/>
    <rect x="412.72" y="367.34" width="9.73" height="9.73"/>
    <rect x="402.99" y="367.34" width="9.73" height="9.73"/>
    <rect x="393.25" y="367.34" width="9.73" height="9.73"/>
  </g>
  <g>
    <path class="cls-1" d="M159.23,113.17v-7.86h-7.87v-7.87h7.87v-7.86h7.86v-7.87h-7.86v-7.86h-7.87v7.86h-7.86v7.87h-7.87v-7.87h-7.86v-15.73h-15.73v15.73h-7.86v7.87h-7.87v-7.87h-7.86v-7.86h-7.87v7.86h-7.86v7.87h7.86v7.86h7.87v7.87h-7.87v7.86h-15.73v15.73h15.73v7.87h7.87v7.86h-7.87v7.87h-7.86v7.86h7.86v7.87h7.87v-7.87h7.86v-7.86h7.87v7.86h7.86v15.73h15.73v-15.73h7.86v-7.86h7.87v7.86h7.86v7.87h7.87v-7.87h7.86v-7.86h-7.86v-7.87h-7.87v-7.86h7.87v-7.87h15.73v-15.73h-15.73ZM143.5,128.9h-7.87v7.87h-7.86v7.86h-15.73v-7.86h-7.86v-7.87h-7.87v-15.73h7.87v-7.86h7.86v-7.87h15.73v7.87h7.86v7.86h7.87v15.73Z"/>
    <g>
      <rect class="cls-1" x="112.04" y="58.12" width="7.87" height="7.86"/>
      <rect class="cls-1" x="119.91" y="58.12" width="7.86" height="7.86"/>
      <rect class="cls-1" x="104.18" y="73.85" width="7.86" height="7.86"/>
      <rect class="cls-1" x="104.18" y="65.98" width="7.86" height="7.87"/>
      <rect class="cls-1" x="127.77" y="73.85" width="7.86" height="7.86"/>
      <g>
        <rect class="cls-1" x="135.63" y="81.71" width="7.87" height="7.87"/>
        <rect class="cls-1" x="143.5" y="73.85" width="7.86" height="7.86"/>
        <rect class="cls-1" x="151.36" y="97.44" width="7.87" height="7.87"/>
        <rect class="cls-1" x="159.23" y="89.58" width="7.86" height="7.86"/>
        <rect class="cls-1" x="151.36" y="65.98" width="7.87" height="7.87"/>
        <rect class="cls-1" x="159.23" y="73.85" width="7.86" height="7.86"/>
        <rect class="cls-1" x="167.09" y="81.71" width="7.87" height="7.87"/>
      </g>
      <g>
        <rect class="cls-1" x="96.31" y="81.71" width="7.87" height="7.87"/>
        <rect class="cls-1" x="88.45" y="73.85" width="7.86" height="7.86"/>
        <rect class="cls-1" x="80.58" y="97.44" width="7.87" height="7.87"/>
        <rect class="cls-1" x="72.72" y="89.58" width="7.86" height="7.86"/>
        <rect class="cls-1" x="80.58" y="65.98" width="7.87" height="7.87"/>
        <rect class="cls-1" x="72.72" y="73.85" width="7.86" height="7.86"/>
        <rect class="cls-1" x="64.85" y="81.71" width="7.87" height="7.87"/>
      </g>
      <rect class="cls-1" x="127.77" y="65.98" width="7.86" height="7.87"/>
      <rect class="cls-1" x="159.23" y="105.31" width="7.86" height="7.86"/>
      <rect class="cls-1" x="167.09" y="105.31" width="7.87" height="7.86"/>
      <rect class="cls-1" x="174.96" y="113.17" width="7.86" height="7.87"/>
      <rect class="cls-1" x="72.72" y="105.31" width="7.86" height="7.86"/>
      <rect class="cls-1" x="64.85" y="105.31" width="7.87" height="7.86"/>
      <rect class="cls-1" x="56.99" y="113.17" width="7.86" height="7.87"/>
      <g>
        <rect class="cls-1" x="112.04" y="176.09" width="7.87" height="7.87"/>
        <rect class="cls-1" x="119.91" y="176.09" width="7.86" height="7.87"/>
        <rect class="cls-1" x="104.18" y="160.36" width="7.86" height="7.87"/>
        <rect class="cls-1" x="104.18" y="168.23" width="7.86" height="7.86"/>
        <rect class="cls-1" x="127.77" y="160.36" width="7.86" height="7.87"/>
        <g>
          <rect class="cls-1" x="135.63" y="152.5" width="7.87" height="7.86"/>
          <rect class="cls-1" x="143.5" y="160.36" width="7.86" height="7.87"/>
          <rect class="cls-1" x="151.36" y="136.77" width="7.87" height="7.86"/>
          <rect class="cls-1" x="159.23" y="144.63" width="7.86" height="7.87"/>
          <rect class="cls-1" x="151.36" y="168.23" width="7.87" height="7.86"/>
          <rect class="cls-1" x="159.23" y="160.36" width="7.86" height="7.87"/>
          <rect class="cls-1" x="167.09" y="152.5" width="7.87" height="7.86"/>
        </g>
        <g>
          <rect class="cls-1" x="96.31" y="152.5" width="7.87" height="7.86"/>
          <rect class="cls-1" x="88.45" y="160.36" width="7.86" height="7.87"/>
          <rect class="cls-1" x="80.58" y="136.77" width="7.87" height="7.86"/>
          <rect class="cls-1" x="72.72" y="144.63" width="7.86" height="7.87"/>
          <rect class="cls-1" x="80.58" y="168.23" width="7.87" height="7.86"/>
          <rect class="cls-1" x="72.72" y="160.36" width="7.86" height="7.87"/>
          <rect class="cls-1" x="64.85" y="152.5" width="7.87" height="7.86"/>
        </g>
        <rect class="cls-1" x="127.77" y="168.23" width="7.86" height="7.86"/>
        <rect class="cls-1" x="159.23" y="128.9" width="7.86" height="7.87"/>
        <rect class="cls-1" x="167.09" y="128.9" width="7.87" height="7.87"/>
        <rect class="cls-1" x="174.96" y="121.04" width="7.86" height="7.86"/>
        <rect class="cls-1" x="72.72" y="128.9" width="7.86" height="7.87"/>
        <rect class="cls-1" x="64.85" y="128.9" width="7.87" height="7.87"/>
        <rect class="cls-1" x="56.99" y="121.04" width="7.86" height="7.86"/>
      </g>
    </g>
  </g>
  <g>
    <rect class="cls-2" x="200.95" y="186.54" width="135.72" height="53.53"/>
    <rect class="cls-2" x="251.98" y="249.64" width="19.93" height="20.33"/>
    <rect class="cls-2" x="220.88" y="166.62" width="105.61" height="83.41"/>
    <rect x="220.88" y="166.62" width="105.61" height="9.96"/>
    <rect x="200.95" y="186.54" width="9.96" height="53.53"/>
    <rect x="210.91" y="176.58" width="9.97" height="9.96"/>
    <rect x="210.91" y="240.07" width="9.97" height="9.96"/>
    <rect x="220.88" y="250.03" width="31.1" height="9.97"/>
    <rect x="251.98" y="260" width="9.96" height="9.96"/>
    <polygon points="326.71 250.03 326.71 260 281.87 260 281.87 289.89 271.91 289.89 271.91 279.92 261.94 279.92 261.94 269.96 271.91 269.96 271.91 250.03 326.71 250.03"/>
    <rect x="326.49" y="176.58" width="9.97" height="9.96"/>
    <rect x="326.71" y="240.07" width="9.96" height="9.96"/>
    <rect x="336.67" y="186.54" width="9.96" height="53.53"/>
    <g>
      <rect x="248.79" y="224.12" width="9.97" height="9.97"/>
      <rect x="268.81" y="224.12" width="9.96" height="9.97"/>
      <rect x="288.82" y="224.12" width="9.96" height="9.97"/>
    </g>
  </g>
</svg>