<?xml version="1.0" encoding="UTF-8"?>
<svg id="Design" xmlns="http://www.w3.org/2000/svg" viewBox="0 0 140.64 202.41">
  <g>
    <rect x="65.34" y="6.55" width="9.96" height="9.96"/>
    <rect x="55.37" y="6.55" width="9.96" height="9.96"/>
    <rect x="45.41" y="6.55" width="9.96" height="9.96"/>
    <rect x="35.45" y="16.51" width="9.96" height="9.96"/>
    <rect x="25.48" y="26.48" width="9.96" height="9.96"/>
    <rect x="15.52" y="36.44" width="9.96" height="9.96"/>
    <rect x="15.52" y="106.19" width="9.96" height="9.96"/>
    <rect x="25.48" y="116.15" width="9.96" height="9.96"/>
    <rect x="35.45" y="126.11" width="9.96" height="9.96"/>
    <rect x="35.45" y="136.08" width="9.96" height="9.96"/>
    <rect x="35.45" y="156.01" width="9.96" height="9.96"/>
    <rect x="95.23" y="156.01" width="9.96" height="9.96"/>
    <rect x="85.27" y="175.93" width="9.96" height="9.96"/>
    <rect x="45.41" y="175.93" width="9.96" height="9.96"/>
    <rect x="35.45" y="146.04" width="69.75" height="9.96"/>
    <rect x="35.45" y="165.97" width="69.75" height="9.96"/>
    <rect x="115.16" y="106.19" width="9.96" height="9.96"/>
    <rect x="105.19" y="116.15" width="9.96" height="9.96"/>
    <rect x="95.23" y="126.11" width="9.96" height="9.96"/>
    <rect x="95.23" y="136.08" width="9.96" height="9.96"/>
    <rect x="5.56" y="46.41" width="9.96" height="9.96"/>
    <rect x="5.56" y="56.37" width="9.96" height="9.96"/>
    <rect x="5.56" y="66.33" width="9.96" height="9.96"/>
    <rect x="5.56" y="76.3" width="9.96" height="9.96"/>
    <rect x="5.56" y="86.26" width="9.96" height="9.96"/>
    <rect x="5.56" y="96.22" width="9.96" height="9.96"/>
    <rect x="95.23" y="16.51" width="9.96" height="9.96"/>
    <rect x="105.19" y="26.48" width="9.96" height="9.96"/>
    <rect x="115.16" y="36.44" width="9.96" height="9.96"/>
    <rect x="125.12" y="46.41" width="9.96" height="9.96"/>
    <rect x="125.12" y="56.37" width="9.96" height="9.96"/>
    <rect x="125.12" y="66.33" width="9.96" height="9.96"/>
    <rect x="125.12" y="76.3" width="9.96" height="9.96"/>
    <rect x="125.12" y="86.26" width="9.96" height="9.96"/>
    <rect x="125.12" y="96.22" width="9.96" height="9.96"/>
    <rect x="85.27" y="6.55" width="9.96" height="9.96"/>
    <rect x="75.3" y="6.55" width="9.96" height="9.96"/>
    <rect x="65.34" y="185.9" width="9.96" height="9.96"/>
    <rect x="75.3" y="185.9" width="9.96" height="9.96"/>
    <rect x="55.37" y="185.9" width="9.96" height="9.96"/>
  </g>
  <g>
    <rect x="55.72" y="107.12" width="9.73" height="9.73"/>
    <rect x="75.19" y="107.12" width="9.73" height="9.73"/>
    <rect x="55.72" y="116.85" width="9.73" height="9.73"/>
    <rect x="55.72" y="126.58" width="9.73" height="9.73"/>
    <rect x="55.72" y="136.31" width="9.73" height="9.73"/>
    <rect x="75.19" y="116.85" width="9.73" height="9.73"/>
    <rect x="75.19" y="126.58" width="9.73" height="9.73"/>
    <rect x="75.19" y="136.31" width="9.73" height="9.73"/>
    <rect x="45.99" y="97.39" width="9.73" height="9.73"/>
    <rect x="36.26" y="87.66" width="9.73" height="9.73"/>
    <rect x="84.92" y="97.39" width="9.73" height="9.73"/>
    <rect x="94.65" y="87.66" width="9.73" height="9.73"/>
    <rect x="36.26" y="77.93" width="9.73" height="9.73"/>
    <rect x="55.72" y="77.93" width="9.73" height="9.73"/>
    <rect x="75.19" y="77.93" width="9.73" height="9.73"/>
    <rect x="45.99" y="68.2" width="9.73" height="9.73"/>
    <rect x="65.45" y="68.2" width="9.73" height="9.73"/>
    <rect x="84.92" y="68.2" width="9.73" height="9.73"/>
    <rect x="94.65" y="77.93" width="9.73" height="9.73"/>
  </g>
</svg>