<?xml version="1.0" encoding="UTF-8"?>
<svg id="Design" xmlns="http://www.w3.org/2000/svg" viewBox="0 0 480 480">
  <defs>
    <style>
      .cls-1 {
        fill: #85a5ff;
      }
    </style>
  </defs>
  <rect class="cls-1" x="277.46" y="103.88" width="79.71" height="69.63"/>
  <rect class="cls-1" x="347.21" y="113.85" width="9.96" height="9.96"/>
  <rect class="cls-1" x="347.21" y="123.81" width="9.96" height="9.96"/>
  <rect class="cls-1" x="347.21" y="133.77" width="9.96" height="9.96"/>
  <rect class="cls-1" x="347.21" y="143.74" width="9.96" height="9.96"/>
  <rect x="327.28" y="103.88" width="9.96" height="9.96"/>
  <rect class="cls-1" x="337.24" y="103.88" width="9.96" height="9.96"/>
  <rect class="cls-1" x="317.32" y="103.88" width="9.96" height="9.96"/>
  <rect class="cls-1" x="297.39" y="103.88" width="9.96" height="9.96"/>
  <rect class="cls-1" x="307.35" y="103.88" width="9.96" height="9.96"/>
  <rect class="cls-1" x="287.42" y="103.88" width="9.96" height="9.96"/>
  <rect class="cls-1" x="277.46" y="103.88" width="9.96" height="9.96"/>
  <rect class="cls-1" x="347.21" y="163.55" width="9.96" height="9.96"/>
  <rect x="327.28" y="163.55" width="9.96" height="9.96"/>
  <rect class="cls-1" x="337.24" y="163.55" width="9.96" height="9.96"/>
  <rect class="cls-1" x="317.32" y="163.55" width="9.96" height="9.96"/>
  <rect class="cls-1" x="297.39" y="163.55" width="9.96" height="9.96"/>
  <rect class="cls-1" x="307.35" y="163.55" width="9.96" height="9.96"/>
  <rect class="cls-1" x="287.42" y="163.55" width="9.96" height="9.96"/>
  <rect x="287.42" y="173.51" width="39.85" height="9.96"/>
  <rect class="cls-1" x="287.42" y="183.47" width="39.85" height="9.96"/>
  <rect class="cls-1" x="287.42" y="193.44" width="39.85" height="9.96"/>
  <rect class="cls-1" x="287.42" y="203.4" width="39.85" height="9.96"/>
  <rect class="cls-1" x="287.42" y="213.37" width="39.85" height="9.96"/>
  <rect class="cls-1" x="287.42" y="223.33" width="39.85" height="9.96"/>
  <rect class="cls-1" x="287.42" y="233.29" width="39.85" height="9.96"/>
  <rect class="cls-1" x="277.46" y="163.55" width="9.96" height="9.96"/>
  <rect class="cls-1" x="257.53" y="103.88" width="9.96" height="50.88"/>
  <rect class="cls-1" x="247.57" y="113.74" width="9.96" height="29.77"/>
  <rect class="cls-1" x="237.61" y="113.74" width="9.96" height="29.77"/>
  <rect class="cls-1" x="247.57" y="143.52" width="9.96" height="9.96"/>
  <rect class="cls-1" x="237.61" y="143.52" width="9.96" height="9.96"/>
  <rect class="cls-1" x="267.5" y="153.58" width="9.96" height="9.96"/>
  <rect class="cls-1" x="257.53" y="153.58" width="9.96" height="9.96"/>
  <rect class="cls-1" x="227.64" y="113.74" width="9.96" height="9.96"/>
  <rect class="cls-1" x="227.64" y="123.71" width="9.96" height="9.96"/>
  <rect class="cls-1" x="227.64" y="143.52" width="9.96" height="9.96"/>
  <rect class="cls-1" x="227.64" y="133.55" width="9.96" height="9.96"/>
  <rect class="cls-1" x="267.5" y="103.88" width="9.96" height="50.88"/>
  <rect x="327.28" y="113.85" width="9.96" height="9.96"/>
  <rect x="327.28" y="123.81" width="9.96" height="9.96"/>
  <rect x="327.28" y="133.77" width="9.96" height="9.96"/>
  <rect x="327.28" y="143.74" width="9.96" height="9.96"/>
  <rect class="cls-1" x="347.21" y="153.7" width="9.96" height="9.96"/>
  <rect x="327.28" y="153.7" width="9.96" height="9.96"/>
  <rect x="387.6" y="133.66" width="9.96" height="9.96"/>
  <rect x="407.53" y="133.66" width="9.96" height="9.96"/>
  <g>
    <rect class="cls-1" x="387.6" y="53.95" width="9.96" height="159.42"/>
    <rect class="cls-1" x="397.57" y="53.95" width="9.96" height="159.42"/>
    <rect class="cls-1" x="407.53" y="53.95" width="9.96" height="159.42"/>
    <rect class="cls-1" x="387.6" y="73.87" width="9.96" height="9.96"/>
    <rect class="cls-1" x="387.6" y="63.91" width="9.96" height="9.96"/>
    <rect class="cls-1" x="377.64" y="93.8" width="9.96" height="9.96"/>
    <rect class="cls-1" x="377.64" y="83.84" width="9.96" height="9.96"/>
    <rect class="cls-1" x="417.49" y="93.8" width="9.96" height="9.96"/>
    <rect class="cls-1" x="377.64" y="103.77" width="9.96" height="9.96"/>
    <rect class="cls-1" x="417.49" y="103.77" width="9.96" height="9.96"/>
    <rect class="cls-1" x="417.49" y="83.84" width="9.96" height="9.96"/>
    <rect class="cls-1" x="407.53" y="73.87" width="9.96" height="9.96"/>
    <rect class="cls-1" x="407.53" y="63.91" width="9.96" height="9.96"/>
    <rect class="cls-1" x="387.6" y="113.73" width="9.96" height="9.96"/>
    <rect class="cls-1" x="407.53" y="113.73" width="9.96" height="9.96"/>
    <rect class="cls-1" x="387.6" y="123.69" width="9.96" height="9.96"/>
    <rect class="cls-1" x="407.53" y="123.69" width="9.96" height="9.96"/>
  </g>
  <rect x="387.6" y="213.37" width="9.96" height="9.96"/>
  <rect x="397.57" y="213.37" width="9.96" height="9.96"/>
  <rect x="377.64" y="213.37" width="9.96" height="9.96"/>
  <rect x="367.68" y="213.37" width="9.96" height="9.96"/>
  <rect x="407.53" y="213.37" width="9.96" height="9.96"/>
  <rect x="417.49" y="213.37" width="9.96" height="9.96"/>
  <rect x="377.64" y="223.33" width="9.96" height="9.96"/>
  <rect class="cls-1" x="377.64" y="223.33" width="49.82" height="9.96"/>
  <rect x="377.64" y="233.29" width="9.96" height="9.96"/>
  <rect class="cls-1" x="377.64" y="233.29" width="49.82" height="9.96"/>
  <rect x="427.46" y="213.37" width="9.96" height="9.96"/>
  <g>
    <rect x="102.36" y="243.26" width="364.95" height="9.96"/>
    <rect x="102.36" y="396.16" width="364.95" height="9.96"/>
    <rect x="467.31" y="253.22" width="9.96" height="143.24"/>
    <rect x="92.4" y="253.22" width="9.96" height="143.24"/>
    <rect x="146.12" y="253.22" width="9.96" height="143.24"/>
  </g>
  <rect x="102.36" y="416.09" width="364.95" height="9.96"/>
  <rect x="102.36" y="406.13" width="9.96" height="9.96"/>
  <rect x="457.35" y="406.13" width="9.96" height="9.96"/>
  <g>
    <rect x="92.4" y="233.29" width="9.96" height="9.96"/>
    <rect x="82.43" y="223.33" width="9.96" height="9.96"/>
    <rect x="72.47" y="213.37" width="9.96" height="9.96"/>
    <rect x="62.51" y="203.4" width="9.96" height="9.96"/>
    <rect x="52.54" y="193.44" width="9.96" height="9.96"/>
    <rect x="42.58" y="183.47" width="9.96" height="9.96"/>
    <rect x="32.62" y="173.51" width="9.96" height="9.96"/>
    <rect x="22.65" y="163.55" width="9.96" height="9.96"/>
  </g>
  <rect x="457.35" y="233.29" width="9.96" height="9.96"/>
  <rect x="447.38" y="223.33" width="9.96" height="9.96"/>
  <rect x="437.42" y="213.37" width="9.96" height="9.96"/>
  <rect x="427.46" y="203.4" width="9.96" height="9.96"/>
  <rect x="417.49" y="193.44" width="9.96" height="9.96"/>
  <rect x="22.65" y="153.58" width="123.47" height="9.96"/>
  <rect x="195.92" y="153.58" width="31.73" height="9.96"/>
  <rect x="357.17" y="153.58" width="30.43" height="9.96"/>
  <rect x="12.69" y="173.51" width="9.96" height="9.96"/>
  <rect x="12.69" y="183.47" width="9.96" height="9.96"/>
  <rect x="2.72" y="193.44" width="9.96" height="9.96"/>
  <rect x="2.72" y="203.4" width="9.96" height="9.96"/>
  <rect x="2.72" y="213.37" width="9.96" height="9.96"/>
  <rect x="2.72" y="223.33" width="9.96" height="9.96"/>
  <rect x="12.69" y="233.29" width="9.96" height="9.96"/>
  <rect x="12.69" y="243.26" width="9.96" height="9.96"/>
  <rect x="22.65" y="253.31" width="9.96" height="9.96"/>
  <rect x="22.65" y="263.27" width="9.96" height="9.96"/>
  <rect x="52.48" y="263.27" width="9.96" height="9.96"/>
  <rect x="42.55" y="263.27" width="9.96" height="9.96"/>
  <rect x="32.62" y="263.27" width="9.96" height="9.96"/>
  <rect x="62.44" y="253.31" width="9.96" height="9.96"/>
  <rect x="72.41" y="253.31" width="9.96" height="9.96"/>
  <rect x="82.37" y="253.31" width="9.96" height="9.96"/>
  <rect x="92.4" y="243.26" width="9.96" height="9.96"/>
  <polygon class="cls-1" points="205.88 83.84 195.92 83.84 185.95 83.84 185.95 93.8 185.95 103.77 185.96 103.77 185.95 103.77 175.99 103.77 175.99 113.73 175.99 122.1 166.04 122.1 166.04 113.73 166.04 103.77 156.08 103.77 156.08 93.8 156.08 91.09 156.08 83.84 146.12 83.84 136.15 83.84 126.19 83.84 126.19 93.8 126.19 103.77 126.19 113.73 126.19 123.69 126.19 133.66 136.15 133.66 136.15 143.62 146.12 143.62 146.12 153.58 156.08 153.58 156.08 163.55 156.08 173.51 156.08 183.47 156.08 193.44 156.08 203.4 156.08 213.37 156.08 223.33 156.08 233.29 156.08 243.26 166.04 243.26 166.04 243.24 176.01 243.24 176.01 243.26 185.97 243.26 185.97 233.29 185.97 223.33 185.97 213.37 185.97 203.4 185.97 193.44 185.97 183.47 185.97 173.51 185.97 163.55 185.97 153.58 195.92 153.58 195.92 143.62 205.88 143.62 205.88 133.66 207.88 133.66 215.84 133.66 215.84 123.69 215.84 113.73 215.84 103.77 215.84 93.8 215.84 83.84 205.88 83.84"/>
  <rect x="156.08" y="153.58" width="29.89" height="9.96"/>
</svg>